P2
60 100
255
2 26 16 2 28 41 33 7 39 53 4 36 0 1 45 50 51 30 8 12 50 48 8 7 47 36 9 30 31 7 40 23 15 49 26 7 27 50 50 29 13 19 31 54 2 24 45 45 27 4 3 46 11 53 53 11 4 10 26 14 
16 3 41 48 36 0 7 49 15 53 28 17 52 12 40 6 3 43 8 55 23 39 21 1 52 17 39 16 7 16 37 40 43 15 16 44 9 49 33 38 23 3 40 41 44 8 15 52 51 26 22 47 6 40 8 43 13 3 30 13 
48 53 42 19 17 44 31 3 29 51 7 16 28 27 5 21 7 40 36 7 33 14 47 30 1 14 19 37 48 3 10 51 54 26 17 41 1 33 4 12 9 23 41 53 29 21 42 23 10 51 31 24 30 54 51 12 8 49 54 31 
26 33 51 42 33 6 18 0 4 54 49 49 28 44 7 6 35 17 49 5 48 26 16 16 1 51 50 49 42 17 16 41 22 46 33 42 2 41 21 41 2 12 45 24 31 2 16 42 30 48 17 16 55 43 39 12 11 43 21 21 
15 15 11 42 41 25 12 10 25 43 35 44 18 50 55 10 25 50 54 19 53 2 9 8 15 1 13 31 52 16 34 31 24 34 55 44 38 43 5 36 5 5 42 24 21 32 9 39 19 18 1 39 1 29 43 29 49 33 32 48 
51 50 18 9 13 35 34 29 51 50 18 14 39 54 43 30 10 15 34 46 12 36 23 7 1 35 6 7 5 13 25 46 33 7 54 1 13 33 29 30 40 24 53 25 31 22 31 7 26 45 18 1 45 8 17 51 38 27 18 37 
42 28 33 50 13 49 4 16 49 44 32 23 30 53 20 13 36 46 12 49 5 21 17 54 30 21 15 27 7 38 47 49 25 22 38 44 39 8 14 45 0 44 27 47 37 7 33 50 46 29 36 29 10 12 39 38 54 51 41 54 
5 34 38 9 49 4 42 44 1 42 19 42 51 26 15 40 36 0 3 55 46 19 5 34 9 52 29 9 38 34 32 14 39 9 13 54 11 45 4 25 33 25 34 21 50 37 18 48 12 31 1 53 44 9 17 50 43 52 9 39 
53 27 2 33 6 11 37 31 22 41 11 29 39 21 5 55 52 21 54 8 52 53 37 52 15 38 39 27 0 4 44 24 4 37 49 40 2 47 30 6 19 32 17 30 44 20 19 24 50 51 41 48 45 41 30 12 40 10 7 46 
15 13 31 27 42 16 35 34 10 5 9 1 34 3 45 13 24 40 12 48 51 30 37 40 54 19 52 45 22 53 9 3 41 38 48 25 48 53 10 41 39 37 52 1 34 49 23 49 26 48 16 7 47 46 32 55 8 28 15 39 
18 24 28 34 38 23 49 34 38 11 5 3 8 32 9 14 27 19 15 52 26 29 39 4 24 28 44 15 51 50 55 49 19 2 50 10 53 49 48 22 43 42 11 34 54 53 30 24 15 8 5 29 34 53 1 24 44 6 48 22 
30 47 36 4 10 44 11 4 6 35 23 45 39 34 6 12 16 28 21 23 27 8 17 51 47 35 14 35 19 55 20 37 10 19 38 0 47 21 5 41 34 29 44 54 44 44 45 2 23 5 13 50 42 19 27 55 12 4 22 13 
46 12 40 11 38 37 37 13 41 53 25 15 49 8 25 42 7 23 0 19 43 49 37 18 34 42 11 1 7 50 10 46 13 47 36 50 43 13 18 27 33 36 55 54 26 43 53 9 35 52 47 17 3 24 15 15 35 44 9 32 
0 52 40 37 47 39 48 24 48 3 51 1 30 51 55 48 38 14 32 43 54 2 42 50 40 0 42 9 54 42 54 30 8 10 1 52 4 5 44 47 14 16 18 8 33 17 50 11 36 17 50 32 16 9 1 7 49 11 46 8 
11 34 16 33 15 5 54 41 54 47 24 37 53 27 13 8 17 22 6 16 45 5 27 55 18 9 29 0 15 40 51 27 49 38 49 26 20 28 45 13 26 0 12 18 44 20 14 9 31 3 13 31 24 25 3 26 28 19 20 53 
41 40 49 11 49 14 31 17 40 7 40 23 51 29 8 32 11 20 3 27 19 23 29 16 22 6 2 31 13 30 15 5 40 1 24 24 34 48 52 54 42 31 30 49 15 40 45 29 35 42 30 37 4 18 48 11 15 51 16 23 
22 11 31 34 19 6 25 2 21 22 54 16 27 35 30 33 6 48 9 35 20 22 22 48 26 21 29 47 34 8 13 25 54 48 2 10 51 12 42 49 1 40 23 1 50 11 10 16 49 37 54 0 6 33 34 37 23 55 27 38 
32 53 42 31 30 55 17 6 0 53 52 36 31 52 14 39 24 23 17 22 8 48 10 45 31 33 52 1 0 32 52 46 8 43 29 55 29 24 5 45 17 0 8 5 31 52 19 43 29 24 19 27 26 8 39 1 26 9 11 7 
0 9 55 40 19 17 24 26 4 9 45 25 7 21 12 26 32 23 38 53 32 45 32 47 8 29 36 22 45 38 23 46 44 33 52 19 32 7 1 0 11 20 16 8 41 45 2 28 19 38 55 20 18 47 16 1 33 16 32 2 
48 18 24 21 47 48 51 1 24 14 18 17 33 0 24 44 8 47 32 19 15 32 30 18 42 37 43 50 6 47 45 22 21 44 14 5 7 14 12 16 43 29 9 5 46 46 44 27 43 27 40 22 37 37 11 53 17 39 33 42 
70 73 54 72 72 99 55 76 79 92 70 90 71 55 96 79 98 93 46 53 62 71 50 65 65 54 64 84 99 84 77 75 78 49 47 89 82 102 83 79 99 92 96 103 102 90 68 93 85 84 70 100 57 89 83 72 80 72 82 62 
95 77 69 54 92 97 50 68 85 96 96 94 77 82 55 61 100 104 105 59 81 60 66 104 85 105 85 65 53 84 75 104 65 80 83 67 104 105 59 64 101 101 95 55 58 72 83 93 58 54 63 102 65 97 49 64 90 56 60 100 
62 49 101 56 66 76 68 76 62 102 47 85 50 87 50 85 51 76 63 101 73 71 103 104 58 75 50 89 70 92 103 98 71 105 76 100 94 52 60 75 76 92 53 105 87 64 69 72 97 71 103 96 84 67 102 48 74 87 105 100 
76 86 78 98 80 83 80 86 67 68 90 47 68 94 99 54 47 60 94 58 75 48 85 73 79 59 46 71 67 91 61 86 69 82 68 84 78 76 78 104 89 77 93 80 50 70 102 90 81 87 99 45 91 102 105 95 82 58 96 78 
54 74 76 81 85 52 47 53 100 67 88 46 91 97 66 79 51 81 103 65 96 92 86 105 73 71 66 99 89 86 74 55 95 84 55 96 98 48 58 77 48 54 96 77 101 86 88 59 97 89 57 67 96 56 51 51 57 63 52 67 
63 50 90 81 84 54 45 56 68 58 75 61 64 86 47 80 74 89 102 52 100 90 79 100 95 50 93 90 87 68 49 101 97 52 78 83 91 98 83 85 77 100 99 57 74 58 60 58 62 94 67 55 99 75 92 74 71 63 97 65 
63 90 87 54 100 96 97 73 46 87 82 79 96 70 81 46 51 96 88 81 89 90 47 69 93 56 67 67 62 95 71 104 103 52 71 80 45 46 100 69 105 71 100 55 60 101 85 91 48 72 67 82 96 92 70 105 67 90 60 58 
70 57 62 54 103 69 102 74 48 46 63 74 69 48 49 50 58 58 102 72 74 69 60 51 82 96 89 83 81 57 99 58 69 48 88 84 73 80 104 71 100 100 71 50 60 45 48 73 60 101 52 46 73 77 96 45 95 85 48 57 
95 71 70 59 94 81 83 104 64 74 45 79 76 63 49 90 97 67 78 53 96 100 48 98 89 73 54 86 97 71 54 73 105 101 72 102 83 105 52 72 93 91 103 93 61 88 82 100 91 59 64 101 49 62 89 90 51 97 73 102 
99 65 101 93 93 81 99 50 45 60 72 72 82 75 74 75 48 59 52 103 86 92 68 56 90 56 85 51 99 82 103 67 59 84 60 105 90 82 89 70 64 97 88 54 94 72 72 61 65 64 96 96 100 67 77 83 102 105 67 91 
64 62 99 51 74 46 68 51 104 45 85 55 73 99 65 93 95 64 75 54 101 76 95 46 101 72 92 95 48 52 75 75 60 60 83 69 52 48 98 95 79 46 96 92 80 75 45 60 62 104 77 95 85 97 83 52 60 85 45 93 
101 71 46 105 87 67 79 96 47 71 100 50 78 86 64 88 93 85 87 84 46 71 63 45 100 97 52 72 100 51 70 45 54 82 52 48 48 61 47 55 93 81 80 60 70 104 86 48 92 54 49 99 59 103 99 58 63 46 96 76 
55 66 89 87 76 93 90 61 79 71 74 84 96 45 98 52 70 59 76 97 81 50 100 71 66 98 58 100 81 101 45 65 75 102 62 95 45 102 98 102 79 83 56 99 84 86 48 90 104 59 78 69 66 86 58 58 51 91 55 82 
104 90 53 61 98 99 105 66 93 72 105 64 86 81 99 48 99 68 51 53 101 47 95 70 64 63 91 81 98 54 84 64 92 53 72 46 54 48 53 50 94 80 98 53 95 67 101 82 83 71 47 98 98 49 92 87 75 63 78 67 
71 52 98 70 90 90 81 45 102 77 83 46 94 46 56 55 57 104 45 79 61 97 70 75 82 98 82 56 91 97 73 78 88 65 91 51 96 74 92 92 94 71 101 97 100 96 74 84 64 51 70 51 60 71 48 93 64 81 46 57 
76 47 88 95 62 49 63 53 65 51 97 72 90 77 50 101 83 72 81 78 100 88 47 89 92 61 84 54 105 80 90 91 55 86 104 51 94 86 102 68 81 68 104 51 88 57 58 103 85 69 71 45 99 88 55 97 86 72 56 100 
79 50 95 96 99 53 82 79 58 78 74 105 85 90 105 99 85 52 47 65 90 78 83 64 91 89 97 96 76 98 55 74 82 102 91 53 76 76 63 65 71 62 55 67 71 72 57 102 103 65 75 63 86 66 60 84 45 104 78 95 
49 68 91 98 84 86 72 99 81 83 79 51 75 89 65 65 79 81 73 49 50 92 102 61 81 76 101 67 87 64 99 95 63 67 72 70 94 55 89 62 98 74 70 96 76 81 57 65 66 63 60 102 95 91 94 56 77 80 99 64 
99 51 97 95 79 49 88 103 57 83 83 48 64 67 46 66 52 69 100 89 94 54 67 71 70 87 83 105 87 76 78 78 48 84 63 92 80 105 96 64 76 47 94 84 49 103 66 49 66 89 47 104 78 90 73 48 68 95 84 46 
66 65 64 82 84 79 83 65 99 96 66 70 59 98 84 95 45 92 100 97 48 78 75 65 71 101 64 57 46 56 78 88 62 52 51 80 60 82 56 61 93 81 45 53 97 79 81 66 85 59 48 85 96 51 47 102 95 68 81 92 
141 113 130 102 115 104 155 150 126 127 128 114 133 98 153 149 119 148 97 149 104 137 148 116 103 113 153 139 117 109 121 127 123 123 118 138 97 154 137 115 132 129 128 153 108 111 103 121 141 117 140 97 103 146 128 144 102 134 119 150 
142 145 109 108 155 125 128 97 133 114 141 105 141 135 121 131 136 149 147 146 128 130 110 128 100 104 148 130 155 135 107 99 111 118 103 122 142 95 140 145 97 144 100 148 138 107 155 118 147 98 148 142 106 155 95 136 149 142 154 117 
112 155 137 115 105 126 151 148 119 108 114 113 121 124 148 143 133 155 114 144 133 125 143 116 111 110 146 136 103 120 114 121 142 108 124 103 111 100 137 141 149 146 101 136 104 121 117 148 100 110 106 137 143 106 130 138 110 136 118 99 
151 138 106 117 133 146 148 100 110 132 109 134 98 130 146 110 139 153 138 117 106 101 95 129 107 132 123 98 122 155 100 131 109 124 128 112 153 138 136 138 147 110 131 148 145 131 103 102 122 120 153 110 112 110 138 153 135 106 139 117 
100 144 101 133 112 133 114 122 137 97 128 123 106 106 140 111 108 138 147 121 98 120 95 111 137 99 128 148 128 97 142 118 148 102 149 105 123 121 122 98 139 116 98 139 115 132 149 118 153 117 134 143 131 130 124 134 125 139 121 102 
148 125 137 152 132 155 117 139 155 109 118 108 105 113 136 124 154 107 144 143 155 132 116 97 118 153 101 134 131 136 140 106 145 103 98 133 108 138 104 126 107 121 137 122 135 137 126 106 105 122 99 138 147 129 151 105 136 124 97 105 
123 118 142 150 103 152 102 106 143 121 117 151 110 124 106 101 140 111 146 123 144 101 118 141 123 107 97 139 151 112 153 127 130 153 136 136 117 109 120 108 124 100 154 137 126 119 118 119 144 102 152 133 125 113 116 135 151 111 133 109 
140 151 95 125 117 141 128 144 134 133 95 95 129 150 125 99 149 100 149 117 152 145 108 120 149 148 146 149 138 96 149 150 143 145 98 97 124 127 100 142 114 138 155 134 114 102 111 135 115 126 144 111 141 118 130 121 155 111 109 120 
126 151 129 124 125 124 98 136 140 141 118 129 100 119 117 144 120 121 155 152 104 96 125 145 113 133 95 122 107 140 141 98 107 121 134 99 119 152 106 109 153 122 150 114 146 139 98 103 116 115 152 133 107 146 98 154 128 148 115 154 
151 98 142 133 98 152 108 139 154 104 119 109 115 127 151 101 148 126 119 104 139 144 144 114 95 144 106 125 112 119 128 122 153 139 136 105 135 155 112 120 127 111 137 108 136 114 110 151 123 123 152 116 132 132 99 140 96 120 143 108 
151 142 124 121 134 142 133 147 149 120 98 122 110 114 126 109 115 95 153 137 135 135 129 104 96 96 130 95 127 141 130 109 134 142 109 97 104 108 107 141 128 121 127 134 149 101 124 96 126 105 136 142 103 110 140 128 140 112 130 149 
116 123 141 130 141 98 147 128 109 103 148 150 121 142 100 133 96 153 120 127 101 136 154 102 137 122 97 144 95 149 101 105 138 99 96 121 147 134 110 101 155 97 146 150 140 151 127 101 102 152 101 144 99 95 123 102 120 124 133 106 
118 119 130 115 135 145 131 153 145 147 131 124 129 111 154 145 97 123 119 141 127 134 153 146 117 112 139 111 134 106 135 121 97 132 154 97 143 107 104 117 145 135 104 138 133 120 119 152 151 131 135 104 141 111 102 141 99 123 106 154 
108 111 136 137 129 113 140 144 100 151 109 100 103 155 139 133 139 136 155 119 103 116 147 124 111 96 116 97 125 104 150 122 151 125 144 119 146 152 107 154 129 139 126 145 136 139 140 152 102 128 108 114 131 120 111 116 153 117 109 147 
103 129 103 153 102 146 108 117 100 98 130 131 142 121 127 125 114 122 105 115 110 135 141 107 110 111 99 144 125 145 149 106 98 108 152 129 106 149 141 112 130 140 105 108 112 120 139 99 126 124 131 109 131 145 150 107 109 125 137 155 
140 102 107 100 103 154 98 99 99 137 128 133 120 155 119 142 109 141 155 102 117 104 104 95 108 141 95 136 132 148 137 95 150 97 153 142 108 154 155 130 125 142 98 144 103 154 139 113 153 103 154 126 111 133 98 113 113 149 105 136 
100 145 114 146 109 121 118 144 128 134 136 140 130 147 143 104 131 154 139 121 141 151 125 125 99 114 132 154 114 98 117 109 141 96 97 101 140 137 108 100 138 154 104 117 99 147 105 140 148 123 134 111 131 137 107 143 107 134 116 129 
97 115 120 121 100 116 134 147 96 105 137 96 118 134 102 95 122 133 148 155 109 127 108 124 138 144 141 128 111 137 130 144 134 123 100 145 152 140 111 129 136 115 138 130 139 139 132 100 131 119 124 123 127 118 149 136 109 154 124 103 
123 143 133 151 116 144 106 108 114 118 135 153 149 132 124 138 103 130 125 110 118 131 124 132 106 117 96 107 106 133 133 143 141 123 104 137 139 151 134 127 136 137 114 108 143 154 100 106 106 105 132 134 111 119 133 100 108 127 128 139 
111 151 128 118 151 127 124 145 149 99 110 148 120 138 152 102 106 111 137 97 147 113 106 138 126 127 116 134 111 116 95 113 138 120 146 105 117 120 107 105 145 101 101 112 129 127 118 137 142 142 117 141 100 132 105 114 154 143 143 143 
188 189 153 172 154 150 194 190 190 179 197 154 158 191 205 166 200 186 204 160 150 182 184 156 182 193 184 193 147 145 156 166 164 205 173 161 169 169 148 147 148 199 146 160 183 154 153 153 170 151 178 196 148 153 169 166 154 193 189 186 
190 170 172 177 175 155 188 192 174 171 197 197 205 178 167 154 153 162 154 153 173 195 204 164 192 153 163 154 196 201 172 166 149 154 177 145 192 194 190 204 193 184 155 186 174 163 173 198 148 191 182 150 157 173 196 202 202 148 158 185 
191 158 201 157 183 188 165 197 164 171 173 178 200 196 160 193 205 179 204 189 197 185 151 166 191 199 148 159 158 202 145 150 194 174 188 203 204 176 160 172 197 187 176 177 194 203 197 160 183 156 194 194 194 197 157 154 150 147 178 145 
198 200 173 169 173 195 178 171 173 167 178 177 164 190 193 164 195 161 170 188 172 149 171 164 179 151 193 162 174 160 155 204 205 150 174 146 168 164 205 196 148 201 201 177 146 165 151 184 165 182 196 187 163 153 191 146 203 166 152 176 
174 200 175 185 167 186 168 181 172 189 161 187 175 172 183 200 160 198 187 152 148 150 190 163 197 203 168 193 172 193 159 160 154 171 200 173 196 174 173 150 147 171 190 159 176 149 169 152 161 170 155 205 152 193 205 189 153 177 179 163 
158 164 187 155 190 176 153 191 196 202 159 204 182 148 186 187 180 155 159 152 182 185 180 189 195 180 145 190 191 188 201 172 164 192 178 180 180 157 168 185 178 194 176 163 205 174 167 166 172 203 159 161 150 162 148 159 199 169 145 161 
176 191 152 180 187 175 154 153 163 161 165 180 193 165 182 169 154 203 182 201 180 160 179 167 203 161 183 201 204 175 180 201 195 156 175 153 191 149 200 176 164 199 166 174 177 177 165 194 165 171 165 169 171 202 152 183 173 156 160 177 
178 170 180 185 184 179 198 196 197 184 204 160 186 161 164 153 163 192 204 202 172 164 164 190 187 201 160 190 182 175 150 165 199 170 199 194 193 160 147 175 168 160 151 170 145 160 180 200 186 154 176 145 163 156 146 182 170 155 204 173 
158 161 161 202 195 174 191 146 191 164 166 186 146 193 170 197 151 202 204 148 159 188 168 150 158 186 205 185 195 159 185 174 176 205 152 163 158 171 187 174 203 181 178 158 191 203 173 167 177 172 146 185 183 204 178 174 155 175 188 169 
189 157 153 169 147 169 180 189 185 198 199 188 172 170 193 159 186 150 202 195 152 178 190 145 196 149 173 202 184 191 199 167 203 199 161 185 182 163 204 148 168 163 158 180 158 188 168 181 176 181 204 198 146 182 170 149 201 196 158 182 
156 171 204 193 177 146 187 177 177 162 188 172 178 168 147 184 190 171 162 161 152 197 171 152 154 164 172 194 182 175 172 153 162 200 196 157 156 165 161 175 145 195 204 192 155 189 146 185 200 194 190 185 169 167 194 147 187 188 201 187 
177 175 147 167 182 181 151 168 166 205 204 176 190 183 204 190 194 175 187 177 169 200 201 192 195 169 189 203 156 188 168 202 194 178 204 193 198 145 172 188 165 157 174 200 196 182 168 199 146 199 199 147 188 158 157 187 198 163 188 157 
198 186 150 186 185 156 203 153 164 146 196 155 153 171 200 179 161 152 159 165 192 194 203 152 162 161 178 164 190 170 189 153 166 204 168 146 152 157 151 180 170 170 190 166 174 204 150 173 198 182 145 201 169 151 147 151 154 194 177 190 
175 169 160 194 161 197 198 203 182 183 163 175 203 165 151 172 161 178 155 167 155 161 171 174 179 154 163 203 155 196 173 159 200 147 160 148 162 167 199 150 193 197 173 167 195 147 192 198 182 152 190 152 170 146 182 201 197 188 148 186 
202 160 187 201 160 160 156 195 175 145 146 174 182 198 195 158 168 191 184 167 197 175 164 204 198 192 172 201 188 181 194 203 149 160 177 201 149 203 145 166 203 202 191 181 164 165 162 197 160 158 190 158 195 200 184 146 157 162 158 150 
160 148 175 195 180 169 163 161 167 176 187 199 174 163 176 205 183 146 148 189 148 200 191 168 172 195 158 158 159 177 170 152 153 155 193 184 182 147 196 189 199 151 195 158 176 177 161 157 203 178 146 163 164 196 199 184 202 168 182 154 
180 179 146 154 182 172 194 165 192 202 162 148 182 179 178 205 175 196 160 184 145 191 190 178 146 194 145 175 205 175 172 205 160 147 168 192 189 161 165 154 182 191 161 148 186 168 193 196 170 204 160 188 180 202 151 145 164 161 159 202 
158 193 195 147 160 197 159 154 152 160 176 173 195 190 162 165 181 172 163 179 171 183 146 166 190 157 171 175 190 151 174 153 196 149 196 153 169 205 151 168 170 170 152 182 147 183 151 159 151 199 166 147 204 202 154 193 149 162 204 170 
197 158 147 155 162 183 191 184 169 145 150 174 184 193 160 147 186 152 158 169 151 177 188 202 191 179 168 149 157 168 147 152 201 194 152 186 154 177 205 199 185 200 195 183 179 166 197 166 200 169 157 196 200 204 181 195 194 162 185 150 
173 166 186 186 160 157 174 173 170 165 193 152 151 191 200 165 179 170 157 199 181 163 199 200 167 184 203 159 157 146 197 178 177 147 189 197 178 189 186 157 161 170 180 189 188 197 164 194 172 179 158 176 185 171 196 198 154 151 156 169 
199 235 217 221 224 240 197 219 213 254 244 217 222 230 229 233 216 216 242 211 228 210 216 198 215 240 248 239 216 208 195 251 230 240 232 251 252 209 222 220 252 249 210 238 214 248 214 250 216 205 222 233 231 225 213 209 224 215 249 209 
240 244 204 240 208 212 204 200 205 210 202 238 252 196 198 228 220 245 210 215 197 228 197 214 253 197 247 240 228 218 216 214 233 198 206 253 220 199 196 203 217 198 237 221 202 240 230 255 247 202 251 199 222 238 226 241 241 204 230 195 
254 211 223 230 206 208 195 250 240 220 201 211 231 223 227 199 214 200 222 229 217 239 226 218 224 217 251 199 235 237 217 231 242 234 236 205 234 241 213 206 207 231 220 203 219 217 221 222 241 237 242 198 245 211 202 212 232 195 208 226 
195 232 253 243 254 195 220 196 241 196 243 236 199 215 208 221 221 215 228 252 207 236 195 227 215 229 239 201 212 232 233 225 236 254 209 247 215 233 199 202 204 252 226 217 244 245 214 224 245 250 234 199 225 205 242 255 230 200 220 218 
238 241 248 241 201 236 251 251 223 200 196 226 255 215 206 222 219 222 243 220 252 212 230 210 219 228 204 216 207 254 227 213 250 211 217 208 219 233 200 204 214 243 248 235 243 208 243 254 238 226 252 237 205 250 242 248 196 207 202 204 
199 216 251 210 226 235 205 246 229 255 241 227 210 240 255 235 203 248 208 196 213 246 246 224 233 212 237 247 218 195 250 216 255 221 201 225 252 254 214 219 223 230 223 249 196 196 211 224 252 219 223 203 243 195 231 214 221 213 235 233 
255 232 203 204 208 233 252 251 239 230 208 218 226 206 229 201 204 227 251 221 227 228 230 233 204 253 222 246 240 240 250 233 241 204 227 198 229 231 201 224 248 211 249 222 213 241 253 238 255 243 246 206 230 250 226 228 216 199 236 225 
243 241 230 227 209 219 227 223 230 247 220 211 203 247 240 202 233 226 233 221 195 207 217 241 233 211 203 197 215 207 234 242 203 232 199 222 225 253 246 242 215 239 239 252 222 231 200 228 237 249 244 246 250 217 218 236 202 227 252 200 
223 246 235 204 219 241 237 228 221 208 210 210 239 244 247 202 242 218 206 204 248 245 222 207 229 253 230 222 253 254 228 225 209 236 249 224 249 225 196 207 227 238 233 231 242 226 232 214 233 253 215 213 239 240 241 252 212 246 246 197 
204 249 235 213 231 223 242 199 223 231 203 199 222 200 218 254 243 211 204 229 201 235 251 240 230 238 249 206 237 216 222 222 231 226 249 255 210 244 246 197 226 206 231 218 196 216 218 213 214 218 202 225 238 225 232 226 229 197 208 208 
245 234 244 215 223 232 199 211 211 251 215 206 212 252 247 248 238 234 227 220 212 241 235 198 253 240 231 243 208 234 235 248 216 253 208 239 198 247 244 226 241 247 241 224 221 200 234 210 240 207 247 241 233 206 239 200 223 248 226 203 
211 251 242 225 199 238 199 255 225 202 251 214 204 202 250 233 250 201 206 215 213 200 241 221 195 223 223 207 203 243 240 208 254 198 234 220 218 205 243 247 232 237 217 200 214 198 248 222 203 215 218 225 246 206 240 225 252 245 244 242 
255 198 248 245 245 201 233 196 224 235 242 239 254 229 230 250 212 221 221 203 224 217 222 209 213 197 207 231 235 240 199 202 236 248 222 224 202 254 215 214 217 216 211 207 254 203 247 239 203 248 209 231 249 205 212 195 199 221 223 198 
200 226 206 195 221 199 211 225 212 216 251 209 255 220 203 255 228 196 244 196 233 220 247 198 216 243 209 254 202 216 219 253 196 240 209 220 246 214 233 201 206 233 245 205 227 212 235 252 246 249 239 231 243 215 239 228 218 251 217 222 
231 209 206 227 203 205 236 235 239 237 226 245 234 230 226 239 238 219 226 246 231 235 205 212 232 243 253 240 226 200 198 224 198 195 236 251 245 246 232 230 247 205 229 241 212 236 231 245 212 213 201 233 214 211 220 229 224 251 243 215 
247 234 224 201 206 217 195 197 202 233 213 216 195 202 218 251 203 227 216 253 228 239 212 216 201 239 209 235 203 251 223 227 226 204 196 195 202 248 218 238 245 196 254 246 204 242 243 203 242 239 228 199 245 246 222 246 211 231 247 242 
241 247 210 209 255 223 235 210 255 226 201 226 250 216 199 241 245 254 227 211 242 253 233 215 255 235 221 220 212 195 217 232 224 217 217 204 253 211 213 212 233 240 195 227 240 195 195 236 253 207 230 216 252 222 205 220 242 222 254 227 
208 255 246 211 246 243 230 200 236 244 240 195 241 196 228 197 226 243 244 226 249 221 237 242 231 254 253 226 231 224 238 235 203 202 216 224 240 236 229 241 231 200 234 249 233 223 200 221 216 241 209 216 225 242 246 223 202 198 240 244 
214 236 217 213 234 216 211 196 224 218 221 226 254 234 229 218 235 232 239 219 206 232 226 203 239 212 239 224 220 253 200 227 196 221 252 253 197 248 237 216 205 229 246 201 206 251 242 222 239 247 242 206 217 235 229 235 196 206 225 232 
221 231 239 240 237 240 201 224 247 242 244 200 237 224 199 228 252 229 254 252 223 206 236 246 231 212 207 220 237 217 208 254 234 217 210 219 255 233 246 220 243 236 196 228 249 221 202 203 203 211 221 225 234 251 242 223 230 248 227 227 
