P2
#imagem2.pgm
100 100
255
39 84 185 187 181 124 106 43 166 191 6 172 173 56 14 152 42 227 213 125 177 70 225 153 241 59 61 12 36 63 152 75 147 81 6 73 206 113 116 116 48 122 33 221 179 47 118 221 18 75 91 196 145 60 93 131 120 154 143 156 217 39 231 109 121 237 182 71 94 42 187 142 164 220 108 87 11 226 53 30 45 144 226 190 204 63 65 68 218 208 224 179 248 199 32 113 181 214 184 19 
0 115 162 165 80 14 252 91 240 49 121 29 193 91 219 142 155 29 210 117 237 179 40 229 122 73 86 47 31 14 67 32 130 229 197 210 243 193 45 227 243 167 0 180 2 219 66 157 248 21 18 230 200 59 203 66 132 34 114 163 48 181 195 178 154 136 132 141 74 178 112 61 89 112 241 91 75 52 249 68 73 11 42 17 70 245 83 202 23 197 110 72 122 49 250 20 186 127 161 4 
49 17 65 138 129 50 229 205 102 222 17 175 234 59 192 48 48 20 251 72 217 105 144 84 154 138 104 84 9 10 88 58 27 153 196 157 204 170 106 50 136 123 226 114 182 162 163 230 182 158 46 144 7 190 228 161 73 76 246 82 86 78 141 114 232 81 15 180 251 121 230 132 244 200 246 170 107 153 144 33 55 191 177 62 125 149 224 198 226 214 25 56 36 166 170 12 247 185 192 243 
50 167 119 38 111 109 208 218 7 97 252 62 32 173 125 157 67 93 100 37 51 125 93 87 35 8 100 26 193 36 13 244 203 132 26 59 242 235 21 249 76 17 55 108 191 180 9 2 17 109 39 68 234 132 156 13 140 0 40 78 36 53 66 240 186 92 43 172 71 64 165 147 82 220 255 17 145 9 19 162 118 58 231 97 190 131 110 75 131 150 153 167 204 219 151 134 55 194 50 127 
3 215 18 85 179 18 102 68 27 121 231 145 179 206 242 113 81 97 188 212 247 85 123 195 48 19 73 104 213 123 231 216 82 249 45 6 11 147 74 38 12 49 184 191 255 170 49 80 11 237 36 3 67 160 198 115 179 16 219 136 139 194 97 222 188 142 228 199 34 46 238 46 96 166 238 95 80 31 176 92 12 212 95 79 116 37 195 39 53 158 176 193 97 17 159 29 159 131 228 193 
177 210 240 17 120 222 113 201 253 33 37 9 245 132 89 106 169 28 145 223 186 65 160 27 82 63 56 242 194 29 179 115 239 163 133 104 129 246 49 126 23 86 136 12 218 225 118 131 253 8 98 183 73 2 211 156 65 11 142 3 40 65 119 24 229 252 128 102 242 177 229 9 7 109 21 225 78 140 100 75 148 199 2 221 201 213 121 11 225 7 14 9 73 133 33 46 129 161 148 115 
82 121 124 89 230 146 58 52 30 159 127 178 102 130 143 47 87 9 58 56 16 73 66 89 206 99 135 80 5 28 195 87 149 64 177 124 210 235 176 240 138 48 162 240 178 49 32 9 58 90 66 75 163 132 164 114 231 44 194 236 72 133 68 221 197 245 89 151 224 10 135 107 58 41 91 236 91 123 245 149 214 55 224 121 187 133 235 163 177 173 143 249 51 211 214 248 200 48 144 169 
58 23 20 116 65 111 96 156 235 85 49 193 141 18 58 72 151 38 235 72 211 123 65 6 78 23 255 23 71 143 192 129 166 212 245 231 67 85 131 46 171 181 239 56 199 42 128 94 80 108 166 35 231 231 42 53 254 41 76 70 184 12 199 94 224 189 70 36 18 201 82 189 126 66 245 69 108 118 163 188 226 73 223 201 48 9 254 47 50 75 117 234 87 60 73 56 249 143 92 12 
88 174 201 215 240 191 28 92 53 192 24 23 9 248 224 58 1 222 105 52 41 222 30 129 26 103 185 20 246 21 32 79 195 233 38 180 168 66 16 221 2 41 244 12 33 212 70 34 179 175 86 220 141 117 93 167 220 22 187 211 43 219 34 239 197 72 163 109 138 179 75 141 220 63 153 253 20 223 32 199 142 118 163 27 235 1 194 200 23 126 155 67 89 189 50 30 5 213 140 143 
136 215 28 101 22 181 98 42 148 130 241 34 249 149 61 228 150 0 172 173 126 71 240 215 4 34 246 9 247 130 153 128 89 181 229 111 107 71 154 255 202 139 34 195 32 95 167 182 95 84 100 221 155 84 181 160 119 171 169 110 45 66 238 134 248 211 245 99 27 143 98 229 27 132 168 59 228 79 242 67 163 86 33 63 170 214 223 33 129 136 144 174 203 126 52 195 82 41 38 109 
185 136 82 212 13 250 15 241 73 1 52 237 87 85 44 2 43 11 35 172 147 179 90 94 50 142 33 132 184 71 241 113 208 67 69 221 61 84 206 134 86 2 115 173 88 159 175 131 170 211 48 62 134 138 156 184 25 190 60 209 5 45 66 213 112 135 178 173 219 128 52 49 131 167 223 219 71 142 94 241 97 142 47 232 25 204 160 50 138 221 3 143 10 69 101 123 204 23 40 167 
152 92 217 27 4 184 246 75 70 84 60 168 227 108 144 252 56 48 46 194 13 49 81 24 118 182 147 66 206 187 233 102 24 194 129 28 122 119 103 193 203 163 105 174 15 249 170 71 41 216 9 55 9 91 79 127 17 226 193 223 157 171 69 181 109 198 209 232 61 56 169 9 220 18 183 235 11 98 51 52 58 60 107 68 151 186 195 169 156 133 136 58 48 206 239 157 148 193 133 210 
249 46 219 213 64 146 193 75 244 244 128 47 48 235 115 200 166 54 113 66 187 249 124 235 199 108 137 92 45 14 46 38 61 9 252 125 155 189 201 144 177 73 191 225 52 50 169 218 104 26 29 36 20 153 15 219 5 152 55 50 167 101 89 228 110 85 97 10 18 42 154 195 115 89 164 168 139 78 130 243 104 159 23 124 57 39 88 62 191 143 113 102 245 202 74 99 31 172 109 49 
214 7 244 74 96 152 242 235 230 116 223 79 20 246 203 77 29 35 139 221 179 252 67 168 198 142 11 229 58 121 22 16 128 10 90 225 163 76 204 137 193 171 216 213 162 164 34 191 199 173 156 122 170 224 34 112 110 46 86 168 167 108 184 39 119 19 8 26 95 213 163 32 128 124 245 34 32 23 226 231 197 126 98 111 94 132 223 204 178 53 116 89 162 45 129 25 64 137 51 159 
94 214 192 223 82 181 1 114 205 227 90 146 98 188 1 192 64 224 141 243 22 1 76 184 46 205 209 110 87 4 14 181 218 206 148 45 131 150 159 80 121 249 226 219 181 227 156 246 196 41 233 218 42 53 146 89 3 99 199 90 103 213 15 65 163 164 110 39 58 14 119 179 7 90 143 189 61 43 179 1 84 156 219 126 209 109 215 212 208 159 46 55 116 62 121 24 226 231 63 28 
245 182 207 253 16 94 186 78 137 109 79 221 9 43 92 218 152 51 175 105 210 221 160 71 27 25 95 253 1 158 25 246 84 233 243 101 71 173 179 209 26 2 174 35 45 10 254 198 62 173 47 16 138 207 87 166 233 182 163 234 84 189 224 169 166 212 14 237 129 193 190 156 195 109 191 241 119 189 183 181 106 230 198 245 181 29 155 158 212 62 136 40 251 105 209 161 61 223 143 190 
160 77 90 100 186 26 85 50 215 12 231 66 242 173 55 167 203 210 70 159 16 206 199 12 55 153 173 116 120 60 51 25 138 141 125 68 167 210 118 127 222 94 193 208 11 248 119 214 202 189 117 218 140 61 230 195 214 148 56 78 208 107 103 90 248 228 159 160 182 21 31 148 115 224 100 127 216 220 85 162 153 203 124 37 8 99 233 222 247 33 44 199 140 148 34 132 120 193 36 47 
214 67 195 74 35 40 201 251 4 30 157 157 233 26 195 241 125 172 207 116 205 252 59 89 144 93 221 8 30 2 55 245 69 251 63 105 35 8 100 39 38 2 196 16 28 135 1 153 51 209 13 0 205 72 89 93 166 55 101 196 57 157 185 126 152 248 231 187 0 76 226 39 78 166 55 106 46 56 3 97 9 16 98 214 88 187 51 254 242 153 195 43 54 124 170 206 117 145 137 117 
221 107 156 43 17 211 149 63 12 152 161 21 168 3 236 1 190 31 255 177 184 194 220 238 63 134 188 180 24 69 41 245 176 198 33 194 153 182 1 165 79 162 187 247 165 167 248 100 198 248 21 127 186 241 109 249 120 42 173 144 111 215 133 32 157 166 226 54 93 227 220 172 134 151 163 43 62 156 143 4 148 164 131 78 150 241 72 14 27 245 158 138 204 35 170 105 202 140 160 39 
112 124 211 246 19 118 33 81 18 177 85 166 85 217 245 235 202 61 249 229 50 151 111 255 187 26 104 133 166 8 172 22 132 127 12 151 245 46 232 8 223 62 174 52 23 163 32 225 224 25 198 19 177 53 18 108 79 122 241 246 131 157 12 7 28 25 159 17 71 135 25 38 197 200 90 220 107 122 189 76 148 131 95 69 185 113 177 8 235 162 254 110 63 11 118 91 36 21 108 107 
156 134 145 98 78 235 62 185 102 252 5 250 127 100 63 56 213 240 65 193 146 63 47 209 74 165 44 110 186 152 217 87 30 106 185 108 86 247 38 188 243 43 182 115 144 245 171 101 229 236 38 119 44 86 72 118 251 116 229 182 12 190 13 43 41 198 151 127 189 189 59 177 233 241 36 121 230 207 222 203 188 5 66 232 91 138 94 86 254 67 12 10 2 25 53 43 223 205 170 157 
138 229 78 115 214 114 236 188 65 203 135 253 208 201 229 43 83 68 129 81 135 142 91 137 167 145 180 135 94 94 36 232 67 114 92 25 228 72 213 37 19 92 35 227 37 8 14 120 76 144 201 212 30 37 93 197 182 18 76 20 112 112 252 180 226 88 205 198 161 163 236 180 255 15 152 37 23 166 157 100 54 103 56 84 140 149 26 66 167 102 86 24 215 82 204 185 171 153 128 76 
60 108 0 60 123 152 97 146 63 254 246 117 101 46 202 241 196 228 51 107 74 137 131 33 220 79 219 135 233 91 211 37 199 211 97 66 108 194 212 171 193 203 32 38 249 234 24 189 206 75 41 25 213 172 58 177 252 21 56 229 112 11 10 55 222 108 121 74 46 78 245 239 25 22 22 18 0 46 208 207 121 249 232 78 165 34 255 161 56 55 134 168 66 145 224 33 253 89 107 43 
167 97 27 192 119 49 211 119 95 163 70 216 156 46 39 65 81 38 227 137 94 105 49 160 250 17 193 247 107 45 35 18 142 62 211 5 111 166 124 206 73 195 166 229 241 205 38 66 244 9 203 82 115 253 242 109 14 180 101 121 225 136 140 111 198 95 116 53 5 240 3 78 179 169 51 165 119 89 231 107 99 179 189 214 176 175 67 190 99 168 56 68 48 196 179 246 35 39 43 40 
24 46 118 203 216 169 112 79 2 88 186 101 11 119 59 187 38 127 121 138 39 177 206 88 117 130 78 152 169 122 192 193 168 54 141 128 223 253 207 226 85 137 71 96 0 131 27 39 2 149 177 41 70 127 129 188 1 208 84 171 74 21 108 242 75 249 115 43 247 66 13 76 204 84 173 204 215 200 243 217 93 164 3 164 36 132 96 37 84 180 208 158 201 61 145 21 54 4 64 45 
70 77 122 18 161 39 223 121 239 210 82 77 119 85 241 155 218 81 192 46 5 145 205 207 206 94 228 4 98 36 50 168 113 172 187 18 211 154 139 194 108 222 15 227 51 0 126 13 81 63 60 87 208 9 38 158 103 10 162 201 46 212 113 159 128 44 177 83 198 61 22 51 27 37 22 78 38 149 92 119 212 152 206 164 161 244 66 8 254 228 209 44 185 66 203 57 111 125 141 53 
186 163 104 213 200 127 35 238 20 127 102 232 23 52 140 184 41 206 192 39 178 145 84 107 212 31 165 67 156 50 120 86 213 225 43 157 96 79 140 116 206 242 92 230 38 232 158 79 182 95 119 104 240 203 212 196 234 121 7 135 171 128 221 128 97 9 29 193 88 169 53 38 155 145 12 194 121 171 17 47 10 136 151 250 83 107 191 62 228 198 197 143 70 162 15 167 171 45 104 3 
214 157 42 114 46 54 52 167 225 69 214 235 206 110 230 33 217 165 95 190 107 36 77 178 199 93 89 114 138 194 118 96 95 160 210 142 214 6 53 184 76 12 163 26 122 137 59 83 46 155 17 154 191 95 76 134 188 165 249 70 103 111 166 199 15 121 85 229 127 138 157 203 150 65 229 16 202 33 100 249 188 117 147 123 212 223 2 144 132 251 214 236 106 125 179 121 246 8 94 117 
146 252 65 41 61 38 57 7 71 157 0 3 19 147 127 231 114 129 120 247 124 78 227 230 203 150 95 193 158 189 55 48 185 120 89 246 158 147 254 230 48 254 233 67 146 104 43 4 233 163 251 101 241 222 75 189 116 170 126 18 104 181 67 33 45 156 24 204 47 22 178 96 20 155 163 166 4 206 171 237 113 166 83 99 133 158 32 249 73 158 12 177 84 79 210 129 235 234 77 27 
0 255 123 21 155 30 187 159 237 102 140 94 13 223 193 146 126 225 139 199 128 151 120 212 230 74 85 210 53 163 237 53 162 104 74 61 134 6 220 115 108 105 210 121 72 147 11 198 117 151 141 245 46 5 201 21 80 30 231 133 193 212 186 100 60 5 161 194 11 126 54 119 231 8 241 47 155 252 246 16 147 131 5 194 137 206 215 217 237 190 94 174 146 24 18 206 29 180 144 40 
50 198 160 25 206 145 72 106 141 62 122 33 194 128 227 75 78 186 36 59 120 130 234 10 154 252 216 184 176 104 224 226 47 128 251 253 17 68 103 159 130 226 192 68 98 163 143 176 93 179 236 213 53 214 223 208 210 183 136 131 31 104 101 78 233 97 76 250 165 179 153 39 149 89 108 247 252 251 168 89 175 148 46 228 106 13 180 60 196 60 191 228 165 37 50 142 134 126 136 43 
50 34 82 199 123 190 191 120 186 103 209 105 251 0 77 101 13 2 161 210 62 97 182 227 134 232 113 12 103 250 55 153 28 137 96 151 72 31 15 2 134 225 107 129 225 184 230 238 186 136 192 249 233 118 220 111 95 78 123 198 72 178 95 100 59 191 251 131 223 11 133 101 236 240 231 205 169 205 187 99 85 124 92 62 242 57 173 81 135 40 23 207 218 118 51 22 54 46 153 21 
57 31 122 37 15 97 242 184 47 174 28 132 42 120 195 28 177 112 110 56 153 133 7 115 252 58 137 50 105 35 71 162 66 193 200 81 35 186 10 82 104 38 214 146 158 153 175 80 10 29 136 163 162 144 22 158 202 160 208 51 195 23 214 5 217 158 86 252 88 96 78 193 134 36 83 37 190 2 117 200 31 253 107 194 141 129 96 88 33 49 139 228 72 97 233 33 255 64 29 88 
160 107 25 39 144 108 76 78 111 193 22 142 190 129 80 76 2 177 164 36 226 47 8 42 145 242 76 144 50 105 232 210 213 1 249 101 110 69 179 221 6 201 107 197 74 188 17 76 109 181 112 79 228 121 121 117 107 197 6 157 47 238 111 4 240 105 105 94 174 28 59 181 229 166 122 47 98 139 123 207 64 236 30 36 101 152 154 208 93 160 109 140 142 220 144 126 69 249 220 244 
21 23 169 250 190 35 41 32 174 165 240 238 145 14 18 246 166 172 198 4 76 51 144 219 15 33 89 85 26 54 73 48 77 242 42 11 21 84 44 195 249 28 177 138 42 195 128 209 112 70 213 188 121 101 151 136 134 241 221 161 39 38 209 116 24 251 128 45 79 172 240 72 200 161 210 242 101 82 195 213 152 152 145 17 254 41 154 132 26 119 37 65 158 246 181 182 242 53 228 65 
225 212 138 169 118 92 156 219 175 95 176 71 248 65 89 246 106 243 122 132 106 160 197 8 150 123 191 136 176 163 202 146 119 84 59 237 176 215 200 95 55 120 167 47 186 0 37 36 243 159 169 93 63 110 102 214 233 37 94 154 200 40 44 63 124 103 45 45 63 245 140 118 110 51 165 40 51 202 76 38 105 245 132 169 100 234 127 77 15 221 231 215 6 19 22 130 123 67 175 186 
57 60 48 167 111 213 207 163 159 27 201 8 17 77 177 117 55 48 194 70 14 170 29 20 189 52 150 56 119 70 242 176 130 34 87 241 247 38 148 150 66 94 159 83 171 80 200 227 129 138 41 143 52 71 163 242 123 57 42 242 127 29 163 1 63 250 243 55 33 135 205 99 229 108 182 145 189 126 116 62 8 157 205 61 228 112 47 95 169 89 82 41 118 245 42 182 239 29 237 16 
165 186 115 138 39 41 27 228 167 143 34 176 45 239 237 17 95 28 113 8 117 195 49 236 184 92 162 167 121 143 184 30 73 43 169 112 85 196 84 252 84 118 172 129 101 153 146 196 181 3 205 43 198 254 23 126 90 185 38 212 72 222 242 145 9 155 2 94 96 86 91 180 205 7 53 50 161 199 247 86 203 196 129 145 194 152 16 29 81 54 241 153 20 227 43 29 127 45 124 223 
131 215 147 80 222 200 131 127 143 122 214 90 62 87 236 0 240 252 29 65 50 14 219 70 242 6 99 113 51 223 80 182 182 227 7 149 171 138 20 58 4 234 149 66 66 129 66 50 125 96 115 175 110 78 245 96 84 88 209 135 56 33 62 238 4 69 131 175 207 152 234 211 130 127 21 196 0 87 246 125 183 106 44 38 184 33 134 13 121 88 148 177 121 210 160 126 23 35 45 230 
187 23 185 62 150 206 2 150 38 249 19 221 99 63 3 27 96 138 40 218 226 189 139 91 143 43 217 167 79 7 141 10 30 71 72 181 21 75 75 59 68 95 25 167 158 28 194 255 166 235 217 136 168 100 228 55 144 189 222 223 196 108 233 227 179 50 152 200 125 227 4 193 66 29 104 225 57 42 224 224 21 185 104 189 29 76 245 173 10 211 140 206 63 118 177 242 168 73 187 37 
45 191 230 111 220 78 80 21 120 48 245 142 233 94 75 7 170 64 180 180 20 65 131 83 183 52 70 95 126 1 132 171 192 106 26 156 184 107 177 48 155 167 190 133 5 10 140 175 74 64 100 94 129 231 178 56 27 248 151 153 249 27 68 185 133 95 85 61 202 6 110 101 173 44 234 178 54 118 98 129 183 198 223 56 173 145 113 200 137 8 98 130 36 166 59 169 5 144 231 207 
151 85 53 68 129 31 247 184 150 89 57 77 31 24 133 204 170 246 148 51 255 246 182 35 157 241 204 162 130 179 114 25 8 167 93 138 198 84 66 92 173 123 169 204 147 47 152 61 37 45 113 36 35 39 71 192 24 20 99 154 199 213 179 208 124 17 90 66 101 156 159 19 23 72 223 170 119 120 232 157 165 89 193 200 128 9 137 152 29 236 51 228 193 230 180 61 247 14 127 93 
170 30 112 193 103 79 108 222 199 84 123 108 173 61 53 45 70 190 197 99 170 248 71 107 223 252 168 214 10 39 51 181 70 163 118 173 243 226 139 186 54 7 39 227 68 92 16 138 26 214 237 196 206 52 47 173 48 215 132 59 254 183 240 68 91 102 241 78 73 125 8 127 132 47 99 200 139 115 82 165 73 63 105 24 115 152 197 164 111 73 223 110 1 207 178 92 53 164 170 126 
33 178 254 165 226 97 109 109 212 191 19 30 254 124 54 113 21 251 21 132 69 244 242 70 195 165 162 249 73 76 119 106 254 117 15 224 214 124 78 171 59 97 201 57 221 255 170 242 250 192 119 63 180 105 133 120 14 39 113 87 115 232 193 114 94 208 82 52 76 160 223 135 1 168 192 223 167 107 209 162 43 72 225 223 178 103 87 192 142 200 24 2 177 217 116 15 170 198 67 246 
103 35 126 104 203 62 71 115 169 25 21 212 97 246 180 19 93 11 212 236 212 236 238 133 197 98 148 111 40 215 102 143 250 228 248 198 34 63 57 204 88 78 160 186 68 84 205 162 96 161 142 52 141 124 185 83 222 77 194 6 36 40 150 31 12 142 229 47 205 30 251 38 108 155 224 176 240 173 82 80 79 224 132 220 92 61 47 58 138 242 65 174 26 215 205 39 101 178 86 50 
208 81 88 60 236 56 237 220 230 63 44 53 32 176 17 124 237 65 183 119 51 248 38 77 207 243 116 52 166 202 102 118 27 191 179 8 247 160 228 221 223 17 18 255 193 36 124 175 101 51 38 152 43 76 229 250 64 90 46 230 36 148 92 64 83 15 72 75 175 44 40 143 61 59 142 255 95 10 174 196 61 212 92 104 33 65 98 97 155 144 71 192 37 163 0 120 179 72 195 98 
116 236 241 178 39 128 177 134 138 95 74 200 51 166 48 84 231 147 181 131 35 252 67 72 160 67 193 83 139 132 181 255 112 167 177 151 39 98 29 177 193 103 121 245 13 170 73 245 61 255 120 96 251 187 169 155 254 106 238 137 238 164 136 95 75 58 246 114 156 20 35 94 123 157 83 137 71 156 126 132 155 246 228 151 177 141 50 175 247 33 56 230 197 192 69 16 250 59 130 151 
79 165 245 203 66 72 84 137 228 210 13 128 200 242 23 121 127 73 40 119 106 96 93 47 32 162 63 27 221 193 178 45 103 167 248 169 239 76 51 211 30 64 83 230 50 106 95 178 180 135 41 30 231 134 78 7 40 141 34 5 79 212 50 182 123 42 95 106 118 146 62 148 211 145 122 5 252 217 183 176 96 224 206 71 102 28 79 142 170 113 148 249 70 198 175 193 241 14 44 103 
161 106 252 116 251 118 121 247 80 49 167 176 17 118 248 120 146 71 6 60 184 154 53 254 97 228 192 82 243 236 185 148 86 181 8 81 44 129 73 124 178 240 44 196 102 36 60 249 107 66 53 36 221 107 34 62 79 226 144 66 206 73 214 36 255 222 118 43 96 191 167 18 175 211 214 22 248 18 15 99 85 68 135 50 175 170 112 255 140 0 65 91 73 24 127 72 246 245 115 86 
180 26 105 100 238 63 122 230 82 137 73 167 205 209 217 125 123 73 124 7 73 189 98 146 213 226 219 204 215 78 34 140 105 139 240 87 203 106 61 29 243 134 196 192 87 157 61 210 230 185 218 47 119 60 193 76 30 156 24 246 235 59 130 84 198 114 171 145 220 232 174 207 110 114 143 198 15 205 152 245 134 114 36 253 175 230 74 205 130 98 195 109 157 69 193 100 183 108 245 147 
84 164 98 195 22 242 137 38 191 33 27 69 148 64 67 67 38 141 16 168 239 212 22 141 25 215 241 209 68 230 100 152 138 199 91 161 185 228 199 120 6 226 189 154 34 0 221 72 141 237 241 125 193 7 10 219 222 251 172 34 225 16 187 108 215 22 13 144 251 212 8 1 182 198 155 217 198 120 33 84 101 18 209 39 25 219 2 248 214 174 26 183 190 213 35 150 236 48 38 231 
4 47 232 187 245 131 148 187 251 181 15 96 200 224 135 225 187 137 217 145 55 244 73 246 201 108 140 181 157 178 156 161 225 132 92 214 7 240 146 2 166 161 99 110 130 234 79 61 116 41 207 171 29 24 161 230 132 45 156 33 224 56 195 193 189 31 152 196 16 42 199 182 203 42 36 77 20 115 139 136 156 90 52 185 114 213 160 246 3 60 24 227 116 219 164 49 250 60 246 10 
102 189 192 50 231 228 127 251 88 10 132 244 100 184 174 214 141 78 205 144 138 229 115 254 192 24 48 186 84 38 197 187 227 133 237 202 106 108 197 194 119 73 182 219 1 100 178 143 178 127 31 60 100 147 59 36 171 107 222 255 145 163 186 116 41 167 62 147 20 3 85 139 77 11 102 78 112 24 221 34 151 253 95 251 144 154 31 59 5 254 58 150 161 245 10 202 156 72 93 176 
75 178 59 152 190 162 231 46 186 196 80 82 193 175 77 81 73 109 140 78 107 199 228 12 188 238 215 88 54 52 9 130 231 68 26 165 230 1 211 161 198 35 243 135 211 64 217 28 173 101 107 24 44 79 37 232 62 252 65 116 48 74 246 23 142 17 188 117 18 143 22 216 179 9 96 134 73 57 162 247 158 13 15 203 93 52 179 155 48 244 15 97 62 6 120 205 23 53 66 41 
196 88 2 119 97 98 253 170 155 160 161 57 173 177 4 10 229 184 165 22 172 181 119 235 187 239 184 210 36 250 251 233 82 253 96 179 95 94 93 250 254 255 52 171 176 56 182 149 240 91 171 157 16 34 136 203 18 64 157 54 58 153 31 140 150 128 63 246 222 156 240 220 155 36 135 75 93 61 225 77 153 140 234 169 175 114 117 193 178 18 247 236 171 23 120 66 151 183 56 117 
84 40 81 239 77 216 59 170 22 28 247 175 168 226 88 87 84 205 24 7 224 16 243 139 39 108 205 190 35 5 51 119 46 132 103 123 92 162 37 114 190 28 33 102 254 122 190 83 71 214 90 39 230 77 179 13 185 128 203 221 134 254 84 180 130 187 47 223 93 84 81 27 112 115 130 111 237 64 194 52 22 28 92 253 105 15 10 35 143 214 0 21 212 84 201 87 16 248 54 109 
76 135 137 189 250 11 44 231 75 238 28 97 10 120 94 115 135 105 150 22 63 150 44 19 235 245 106 251 238 160 104 58 40 241 247 34 252 35 10 71 17 38 169 27 158 7 143 37 112 37 59 175 188 103 195 167 93 45 162 75 206 10 133 246 252 125 24 248 160 34 64 178 72 233 205 230 240 92 11 97 130 71 16 62 174 211 229 11 1 135 86 207 145 220 197 141 89 221 134 249 
0 198 171 72 175 121 47 159 213 58 0 87 129 17 149 48 228 122 59 229 1 146 180 147 110 121 32 199 87 166 192 87 108 108 159 27 229 206 187 186 9 187 18 138 204 167 186 177 34 246 150 35 136 75 182 246 196 215 189 27 125 125 114 234 233 18 5 206 224 192 137 233 124 155 116 72 66 46 249 100 36 144 136 172 219 62 162 159 21 95 187 147 221 45 125 198 63 130 149 32 
67 30 9 191 185 125 7 251 172 1 96 208 145 232 125 108 38 31 11 60 127 198 207 92 244 76 34 51 206 183 83 17 213 93 208 142 218 216 138 134 217 234 87 106 210 212 214 248 243 225 52 114 168 3 206 156 79 241 207 30 168 35 47 126 128 0 12 90 216 150 225 177 128 56 27 82 12 241 75 255 210 127 114 122 131 64 22 210 49 230 240 218 9 32 88 137 32 100 227 248 
251 196 169 123 252 196 206 8 181 25 8 135 152 122 2 27 186 24 238 236 254 222 198 7 254 30 144 30 130 116 22 125 56 191 249 53 131 199 61 56 224 69 192 120 191 194 148 122 218 130 102 217 96 44 224 95 74 113 125 204 229 148 74 29 83 67 82 215 10 144 15 234 213 207 98 149 145 246 15 108 120 117 69 217 161 37 56 235 150 181 183 123 73 1 153 157 68 235 116 78 
123 131 56 81 83 155 230 228 145 245 80 10 106 149 227 11 187 27 246 81 208 173 205 26 175 102 183 243 81 43 66 205 174 122 30 1 21 4 230 167 249 54 177 99 204 148 110 135 175 100 216 127 17 165 153 192 11 80 180 93 123 246 42 42 112 72 43 134 76 17 45 69 72 222 168 20 114 22 155 33 122 115 160 139 25 58 76 36 138 0 129 6 246 171 48 102 243 91 236 63 
109 25 132 181 247 44 201 105 66 100 138 188 215 43 72 240 101 148 21 239 148 150 245 138 66 37 240 53 129 221 117 238 246 249 163 238 38 108 87 104 208 226 37 167 13 109 152 114 1 173 97 149 67 87 31 133 124 15 187 253 236 48 235 227 41 142 209 79 250 40 184 202 10 221 114 23 74 10 137 75 183 235 224 250 66 255 128 190 14 59 188 251 107 167 222 148 54 175 228 48 
215 156 251 226 121 109 249 195 119 131 14 46 110 238 40 176 237 168 110 251 227 42 246 78 210 212 227 8 131 199 56 91 99 51 61 220 160 54 159 23 185 173 69 39 155 110 215 136 22 70 131 250 112 122 72 66 78 43 74 210 242 131 45 85 182 106 49 87 160 208 110 90 125 180 129 24 34 89 160 56 159 36 50 15 158 123 82 236 166 156 190 153 31 235 238 214 85 32 45 246 
240 155 80 110 79 209 134 113 42 39 170 201 75 220 217 233 87 43 213 254 199 148 151 231 127 133 189 213 165 234 203 150 133 27 4 213 236 138 70 23 177 240 224 252 205 185 229 36 228 187 34 172 79 185 147 206 63 80 163 228 58 110 122 191 137 126 148 118 9 219 141 186 203 109 183 152 39 156 189 11 87 223 183 166 153 74 117 216 154 24 188 212 135 55 148 16 181 40 134 190 
3 19 121 207 129 48 103 168 204 36 179 36 4 107 202 157 181 63 117 80 88 49 36 223 104 184 239 30 225 118 220 228 137 85 179 10 133 27 178 82 63 102 118 67 209 64 224 134 128 85 214 216 135 251 183 239 179 166 13 148 28 234 121 166 63 44 176 197 71 99 23 135 201 141 202 154 205 171 32 77 0 247 37 135 242 220 119 165 131 132 58 159 110 179 69 174 223 246 115 39 
89 138 174 34 23 120 188 228 35 220 50 36 211 87 171 197 52 34 107 183 167 165 86 21 88 156 195 55 146 54 94 235 192 12 13 215 133 201 188 168 165 238 204 121 69 120 62 121 154 169 48 65 78 135 87 166 35 26 222 181 81 60 160 17 73 173 233 206 118 165 118 27 147 67 148 216 187 211 82 85 124 130 151 203 9 238 113 44 8 79 225 89 140 129 107 213 46 84 163 164 
249 25 192 140 92 84 100 23 39 182 109 164 57 4 111 66 242 224 111 250 48 80 84 188 210 191 145 0 19 52 165 12 77 101 152 170 185 252 193 225 179 46 133 236 50 244 46 36 212 157 31 4 238 115 192 192 50 81 192 69 133 101 81 211 202 233 125 132 229 62 101 152 109 234 132 159 222 179 196 178 80 227 183 62 86 119 254 136 201 191 205 78 36 30 33 239 7 158 115 236 
221 216 133 74 194 9 233 160 188 173 82 13 144 9 75 230 129 74 110 74 9 59 152 45 89 186 28 96 88 143 77 53 103 210 127 41 219 105 201 152 22 28 165 167 37 240 141 166 58 252 240 67 55 137 113 145 67 141 241 155 29 62 209 132 16 80 174 236 185 119 132 208 147 41 119 185 25 4 95 84 0 80 151 56 217 8 201 28 150 186 183 179 249 136 55 9 217 229 245 146 
93 121 98 240 162 217 169 188 222 9 16 222 89 167 22 50 176 223 78 70 154 5 249 147 142 48 156 103 22 146 249 115 11 92 99 174 53 13 106 19 22 122 242 111 33 8 161 209 232 239 23 130 244 16 21 130 65 177 233 87 67 227 202 79 63 45 253 116 58 103 136 80 225 122 191 2 130 96 212 106 79 235 236 68 252 1 198 61 179 176 148 246 147 94 69 210 139 66 70 198 
169 206 22 138 72 214 141 203 54 97 53 134 76 34 202 72 35 144 133 214 64 25 205 211 119 18 165 3 85 236 201 254 186 223 137 3 181 22 206 236 119 3 114 195 37 60 12 73 204 145 31 13 171 236 224 34 255 134 37 84 114 238 82 44 206 219 47 131 241 253 111 104 1 225 44 38 29 56 111 234 201 143 247 116 123 215 151 122 93 188 206 207 171 33 252 121 252 43 252 238 
41 108 86 42 77 130 80 107 186 192 85 132 79 76 248 202 35 143 69 129 76 19 80 247 52 76 112 49 120 108 31 161 216 117 203 38 248 27 145 178 219 230 54 42 50 47 245 85 190 58 214 10 77 39 1 130 115 113 179 235 222 210 140 182 71 87 220 63 115 109 242 78 83 40 121 133 87 110 219 22 168 177 32 245 216 34 119 76 147 42 55 113 252 196 40 68 27 4 131 142 
114 117 221 197 158 86 75 245 196 38 11 108 215 44 97 176 78 217 252 225 3 51 83 0 247 123 68 19 127 199 161 241 61 126 183 219 212 2 208 152 40 220 4 255 8 102 175 86 63 171 55 66 223 138 66 214 5 134 233 133 78 139 118 139 9 45 102 222 47 54 118 87 18 123 87 26 225 6 112 32 178 168 98 145 50 165 103 56 43 81 189 121 220 51 4 229 97 106 195 144 
161 58 232 179 181 63 206 150 69 62 182 247 230 24 136 25 189 240 81 233 65 14 98 29 65 103 2 162 209 198 51 114 0 27 38 181 90 244 75 159 50 1 151 25 25 31 50 215 15 131 192 80 145 34 109 210 137 112 117 91 54 168 205 54 195 243 235 29 231 54 188 26 55 83 51 80 115 101 39 130 232 231 211 121 10 64 75 147 176 192 238 230 104 188 28 43 175 7 72 151 
61 5 177 116 88 228 197 203 73 236 78 49 212 33 170 222 97 245 113 18 182 96 248 30 28 21 74 203 28 146 98 90 151 19 206 240 247 147 187 64 128 9 113 84 42 27 50 140 17 163 158 199 3 150 229 31 171 47 235 200 194 77 34 89 97 240 73 88 132 5 153 4 14 10 88 57 38 138 197 55 45 99 254 49 249 227 80 165 19 59 109 213 137 143 46 234 127 120 66 3 
125 219 7 139 230 95 196 12 233 137 67 23 236 65 72 230 36 152 139 55 212 248 12 93 135 59 71 6 179 137 10 48 101 17 187 75 113 128 87 90 9 154 113 246 219 185 220 255 82 103 55 38 95 67 131 230 126 202 236 49 83 246 97 184 8 29 3 121 157 90 211 166 244 69 156 207 254 120 207 80 223 6 118 62 73 249 36 200 195 17 249 23 7 91 207 15 120 211 136 21 
45 92 187 34 161 88 241 159 208 192 240 176 198 102 238 16 96 19 216 35 36 209 58 43 44 10 59 164 221 195 185 10 31 117 44 192 205 30 96 157 222 80 77 165 182 60 181 22 79 141 58 115 94 116 158 139 126 217 47 91 157 233 102 188 94 146 125 43 176 221 200 143 45 22 52 227 82 233 250 161 118 52 20 212 168 178 95 39 140 143 130 41 120 232 229 214 123 98 1 43 
63 201 186 108 223 238 80 49 215 74 210 77 126 230 34 38 153 129 77 37 16 208 78 136 184 51 94 51 150 95 95 213 41 25 66 8 8 146 58 223 220 12 45 90 243 79 128 140 208 206 177 225 158 255 105 86 50 200 138 200 39 233 158 80 2 224 89 10 114 147 234 78 159 23 168 146 102 40 30 54 246 207 23 148 206 129 235 1 73 117 201 112 94 103 193 96 71 26 107 185 
173 85 7 76 108 175 223 210 216 253 8 206 205 32 99 155 161 78 156 234 195 102 90 33 205 27 129 21 53 236 206 226 65 214 47 173 133 14 127 93 11 136 44 216 168 143 116 73 221 16 51 160 118 141 193 68 169 66 89 222 47 39 193 112 253 240 30 131 254 157 224 9 37 12 226 205 155 86 22 120 102 73 24 221 215 217 33 128 28 122 94 75 161 31 187 159 15 217 34 13 
119 2 23 156 15 249 106 170 79 128 35 181 202 59 146 161 21 179 33 49 45 127 124 207 159 55 110 174 17 144 188 136 146 211 36 161 204 142 76 27 15 111 208 217 170 99 122 191 22 155 240 68 26 108 19 185 164 129 104 181 17 36 61 163 247 97 69 195 240 145 222 255 0 174 216 170 17 82 106 40 237 90 108 7 199 127 193 107 0 41 32 17 77 93 180 68 190 249 7 174 
138 229 173 138 147 133 53 165 215 159 205 196 249 57 204 192 184 141 43 184 182 75 201 3 168 125 71 103 119 78 21 1 51 195 140 198 72 193 107 32 96 56 228 89 113 176 26 41 61 69 225 243 145 170 246 57 40 61 160 159 139 182 160 190 121 44 133 193 237 240 225 77 41 198 167 154 118 193 196 180 6 165 167 151 80 158 209 120 219 113 23 103 39 183 37 160 228 170 98 209 
155 67 31 196 9 198 94 128 135 34 52 141 200 219 37 24 121 246 144 85 103 167 188 143 94 225 47 66 140 145 20 39 213 51 235 222 249 73 94 128 108 146 13 52 110 50 76 231 40 220 60 144 131 248 31 225 218 78 36 102 224 56 141 181 107 120 147 100 193 242 228 45 132 241 97 242 36 173 218 76 137 22 220 12 15 251 238 233 74 18 79 42 74 220 223 181 84 114 25 21 
100 253 67 233 238 164 219 18 82 181 95 219 204 59 232 219 55 214 196 129 232 19 171 50 239 138 231 67 252 0 88 97 253 155 74 235 64 37 254 146 219 93 109 167 152 85 130 207 43 70 80 19 89 251 69 72 133 44 139 130 44 227 227 41 127 45 21 191 82 19 81 45 112 190 212 8 20 86 216 63 156 40 83 245 36 152 61 169 197 200 43 241 172 14 27 43 59 48 234 142 
67 59 187 179 249 144 187 13 230 147 77 131 188 160 120 224 56 182 137 253 126 181 239 42 195 10 85 255 58 63 141 125 122 72 48 116 216 235 129 191 127 206 66 59 110 186 27 167 112 164 164 239 89 147 25 29 157 111 28 215 174 169 84 41 241 132 157 202 112 30 137 239 237 203 42 91 133 69 2 246 233 167 229 67 58 254 96 216 109 124 175 28 37 4 69 22 136 226 224 248 
0 105 231 237 52 17 73 186 86 75 176 64 242 149 131 45 147 227 5 1 95 180 29 132 184 98 154 65 68 123 57 68 228 33 50 25 50 123 211 137 198 131 201 185 24 76 230 171 47 235 172 142 159 201 18 88 43 172 153 111 39 210 180 12 243 230 37 38 97 248 175 39 123 120 224 147 196 198 62 243 177 235 129 81 180 147 169 224 63 66 79 103 20 3 115 8 233 152 46 74 
144 221 114 11 85 82 158 25 25 220 12 202 199 141 27 124 32 196 92 95 6 171 198 27 175 57 35 152 209 81 227 97 46 85 108 131 167 10 156 192 231 168 139 174 53 166 42 85 107 134 180 113 50 123 140 225 180 175 121 134 0 92 231 46 177 84 177 89 94 77 25 69 245 164 244 42 75 30 127 182 165 52 39 215 175 180 184 99 99 49 233 100 142 209 146 63 37 68 152 131 
145 178 201 135 86 189 177 161 219 49 87 128 101 127 87 20 51 15 119 150 65 97 250 207 50 141 14 87 209 167 218 98 89 163 233 175 96 155 81 60 204 168 188 49 39 20 69 90 35 188 241 100 29 235 51 79 120 66 166 73 233 129 172 66 36 149 241 133 48 66 193 252 235 125 45 18 145 114 109 181 47 94 25 76 73 77 156 194 143 66 11 120 195 183 186 232 77 171 109 125 
238 46 122 217 171 167 235 61 26 88 242 73 182 11 149 0 88 49 194 231 116 205 95 55 133 25 31 210 197 140 79 179 186 201 140 102 113 119 163 139 208 149 212 134 160 105 134 249 155 72 224 15 22 64 70 155 89 102 109 30 242 188 209 173 134 93 19 247 213 182 130 165 75 86 43 235 191 178 228 90 250 197 105 16 5 176 171 94 22 24 125 8 213 78 181 91 172 200 82 129 
126 212 38 201 42 81 181 233 3 153 68 254 94 173 14 99 93 186 194 115 210 63 124 167 141 49 2 57 250 84 186 120 40 224 66 82 50 247 60 53 144 128 51 239 45 66 82 139 252 20 254 206 83 122 118 225 172 120 26 166 205 213 30 245 181 96 72 231 87 132 29 232 4 80 215 49 146 41 188 142 62 187 93 145 53 211 114 225 75 141 135 24 98 166 14 23 6 86 255 94 
218 28 70 222 108 29 15 255 70 204 141 132 135 234 22 188 189 136 158 9 21 37 33 119 203 47 143 210 133 142 48 95 170 118 61 22 147 77 21 217 25 163 94 160 141 116 92 75 252 250 84 18 32 117 137 235 165 24 189 42 166 237 138 80 99 199 103 246 20 124 208 45 31 46 205 173 162 42 248 158 36 76 176 68 193 58 48 102 82 237 145 249 219 27 73 62 226 176 53 247 
45 5 36 76 51 242 249 213 28 241 115 64 61 36 133 255 94 181 101 176 162 246 169 125 17 243 188 244 163 241 235 208 246 15 29 41 1 22 254 29 8 113 94 69 149 227 68 243 152 170 164 58 160 77 184 178 64 116 166 228 101 145 180 91 160 209 132 162 232 130 191 240 243 29 53 137 0 122 124 152 36 32 211 196 110 139 118 174 255 28 146 100 173 71 191 78 24 67 240 0 
197 175 240 184 205 38 65 205 160 190 102 196 222 57 136 76 196 255 251 195 27 141 39 201 212 230 23 237 41 7 237 238 182 222 166 131 4 232 81 164 166 183 104 132 240 240 209 180 239 204 119 11 89 158 212 46 132 235 27 173 242 8 155 168 230 65 44 234 41 125 142 207 52 246 84 36 231 37 216 214 241 79 225 74 237 181 120 113 160 147 30 146 156 185 59 130 250 103 109 36 
228 251 243 24 242 71 60 217 108 20 175 93 99 145 168 80 70 32 193 231 180 223 121 80 152 180 210 146 27 63 182 255 59 170 23 45 241 83 6 94 103 181 187 202 70 99 26 141 132 219 116 56 186 237 136 82 162 90 229 189 154 155 189 213 69 212 2 55 40 8 149 143 189 80 90 4 180 116 145 56 80 5 112 10 242 248 93 148 82 66 82 236 221 15 193 35 227 195 90 11 
203 239 155 137 63 245 141 243 105 30 43 185 35 155 196 21 147 33 170 230 99 252 210 64 11 148 99 238 87 189 250 35 172 149 172 236 138 57 223 243 87 11 173 122 166 113 143 58 146 57 32 245 53 242 53 64 134 153 47 222 86 41 1 3 190 173 239 72 230 206 59 61 217 232 183 128 89 70 186 235 128 218 224 181 204 22 246 83 175 37 49 5 78 50 8 12 223 247 84 197 
198 143 2 159 120 185 31 209 255 217 189 127 179 157 53 128 179 43 211 98 80 4 104 158 54 112 170 21 104 254 218 46 141 220 205 5 149 237 215 148 198 148 20 122 49 73 250 229 116 205 71 196 209 175 98 7 32 12 28 136 10 246 182 151 210 131 157 103 112 116 251 55 8 15 177 57 88 171 30 204 120 102 144 73 21 242 80 53 254 108 189 8 98 115 160 52 247 61 155 103 
177 150 158 185 166 79 242 254 250 17 203 114 119 91 187 140 78 11 194 76 119 127 85 217 243 245 13 234 50 168 81 227 63 240 156 229 63 142 227 58 159 174 172 22 10 104 163 88 115 101 164 235 228 249 196 215 238 210 193 32 122 19 3 185 3 159 158 66 46 130 124 205 48 41 228 58 145 135 146 4 236 55 239 208 48 180 168 31 134 105 63 0 124 67 186 127 226 88 194 16 
218 62 222 11 103 194 69 248 73 216 253 53 15 236 5 63 160 173 94 38 23 158 39 147 225 225 19 195 57 213 212 20 19 178 31 123 116 100 115 189 60 112 242 75 93 247 139 253 165 233 36 188 135 75 79 104 44 98 44 101 55 0 121 75 178 152 198 38 253 57 227 57 170 213 133 7 204 16 4 113 249 40 45 129 115 125 233 159 223 21 5 23 21 126 98 199 23 40 237 20 
97 208 77 11 165 210 18 114 226 23 227 220 63 17 93 179 142 70 82 109 92 87 132 113 214 230 57 237 14 38 1 112 247 78 123 156 33 142 14 3 165 242 223 228 3 60 151 145 131 234 254 223 65 131 80 23 105 137 4 120 176 5 232 167 84 99 67 117 241 82 120 150 68 88 123 71 148 18 216 23 252 214 246 62 89 71 85 195 208 90 59 128 95 35 39 179 134 107 40 120 
189 161 14 1 249 137 72 141 156 32 165 152 246 155 214 80 226 44 19 179 134 78 51 229 113 91 153 247 198 193 111 131 98 126 132 91 7 204 233 163 236 142 60 226 41 18 50 12 62 69 191 196 147 242 170 4 77 67 252 19 4 107 150 103 233 26 194 241 230 171 148 210 57 208 181 99 227 231 111 33 45 46 230 192 32 144 197 110 211 193 129 215 44 24 62 22 50 1 7 25 
172 155 235 230 108 160 73 79 136 184 112 181 230 86 117 6 230 58 116 185 251 246 145 40 14 207 62 64 208 69 89 125 224 69 99 76 229 172 155 109 100 12 34 74 98 152 80 73 210 197 2 206 187 147 246 201 99 52 9 51 121 99 176 89 168 19 166 141 191 65 251 35 77 29 109 176 181 190 249 136 131 251 86 62 143 76 7 242 128 16 37 249 115 214 82 27 233 248 169 169 
58 164 204 135 193 58 55 119 248 48 255 123 44 85 185 187 161 192 173 33 208 210 26 68 168 108 95 146 101 8 59 159 172 7 38 110 65 94 229 57 142 228 180 186 57 109 117 218 45 34 251 254 245 21 66 157 129 161 47 230 170 106 133 86 114 172 196 179 10 169 237 152 141 161 83 198 15 200 160 60 235 155 58 224 176 124 125 50 30 173 24 200 23 158 30 137 74 227 61 84 
