P2
100 100
255
216 248 78 151 140 46 248 251 127 54 118 249 89 108 201 98 55 200 25 143 161 2 73 161 187 249 207 13 191 85 195 89 170 107 53 32 54 98 196 92 9 148 108 229 44 55 160 52 190 61 153 109 234 120 237 157 22 2 99 63 93 220 6 6 64 213 120 214 152 174 137 19 207 123 8 31 80 76 218 30 60 13 72 253 95 171 157 178 98 121 241 197 66 209 64 15 1 254 191 194 
155 89 111 169 59 179 242 177 175 243 158 169 25 0 208 70 232 226 130 106 7 36 32 165 84 124 152 253 84 174 177 234 37 173 157 165 180 3 209 162 48 116 20 91 190 222 214 80 110 100 196 76 109 203 153 233 125 36 55 86 163 172 246 88 31 240 60 143 161 53 78 251 186 22 101 191 145 111 5 36 215 122 138 224 253 56 4 153 164 19 68 165 85 193 55 20 114 107 115 240 
108 15 16 195 55 35 185 90 251 123 2 201 13 108 252 175 29 50 8 187 177 143 232 111 210 181 28 36 4 102 107 79 124 90 192 2 142 225 55 182 101 201 120 71 246 130 68 64 54 128 77 89 139 225 75 62 129 80 76 146 191 41 75 52 57 221 5 193 167 153 8 90 53 34 13 167 124 4 135 27 177 235 124 122 28 81 148 153 204 89 112 102 138 251 60 39 11 98 136 7 
106 146 83 206 213 78 105 240 134 57 240 201 244 59 61 39 75 38 236 9 26 154 47 166 76 38 102 177 90 175 240 220 191 22 65 155 171 21 53 42 251 106 164 209 105 56 55 103 0 170 122 21 212 217 50 92 239 240 240 89 142 142 230 72 142 107 250 72 33 63 25 93 197 223 206 187 119 169 19 66 35 35 103 69 96 223 32 143 90 162 3 168 15 196 18 84 191 218 165 93 
157 147 188 146 203 224 148 16 133 88 120 192 157 218 218 33 39 116 162 72 117 131 198 37 70 28 27 7 58 171 107 98 137 218 199 209 245 181 30 87 253 11 15 234 84 23 252 50 145 95 96 142 40 221 98 88 153 93 170 106 231 38 115 224 76 220 225 32 43 165 149 24 70 139 128 199 49 34 244 255 7 106 1 105 91 246 254 201 113 78 102 131 174 147 230 95 78 97 179 137 
85 249 33 220 200 160 114 95 28 66 235 16 239 91 46 225 246 24 195 1 55 185 248 92 120 57 235 101 247 49 229 19 91 250 233 41 235 17 141 187 254 192 9 238 178 251 142 255 225 137 217 135 81 100 7 253 43 97 171 124 175 19 30 198 37 237 22 138 23 168 122 226 189 228 117 32 185 18 202 202 5 145 103 227 41 23 60 108 177 83 77 43 222 209 6 171 156 29 207 132 
180 43 225 220 67 246 88 46 107 104 137 75 72 122 149 158 37 156 63 179 240 87 250 251 236 49 70 201 166 209 61 161 42 99 105 178 118 62 217 161 47 196 116 136 147 138 141 63 175 186 183 218 210 181 218 114 65 252 134 41 44 80 136 104 225 24 187 107 64 4 33 0 111 240 50 139 207 11 116 78 46 56 76 231 62 180 20 26 69 249 109 209 23 227 215 97 66 18 127 15 
136 143 87 211 146 178 108 92 226 67 117 83 10 223 167 228 27 157 209 123 97 242 164 203 77 210 82 21 179 24 92 167 54 40 164 163 0 211 202 1 182 123 181 215 170 119 112 216 83 184 56 27 251 173 211 31 184 101 35 11 157 244 250 58 49 23 48 246 32 27 243 132 49 250 95 98 120 200 78 204 205 77 114 132 125 244 161 211 63 228 111 203 105 108 2 208 99 164 34 87 
92 81 144 236 61 10 153 122 219 153 234 199 113 164 166 62 77 141 182 241 201 150 97 222 125 73 28 113 179 23 163 75 27 63 72 66 193 241 139 169 59 179 236 209 39 5 253 207 213 64 187 128 64 196 30 203 67 82 239 38 9 183 218 92 198 171 196 141 164 248 95 118 1 223 251 242 215 183 159 193 123 215 88 137 139 182 209 26 33 81 36 246 77 205 240 17 195 94 172 213 
208 103 58 105 147 227 191 51 105 3 179 156 169 24 52 19 146 180 160 84 129 12 98 234 103 161 12 242 123 32 167 35 44 134 70 11 90 135 226 155 197 49 97 230 198 205 248 38 61 6 179 0 202 77 82 9 64 123 87 136 86 184 93 126 160 156 171 227 190 149 9 51 212 137 211 41 58 188 75 202 116 243 51 166 100 218 156 91 190 163 249 90 189 240 119 238 20 243 145 122 
40 211 222 2 124 82 46 236 108 174 214 8 31 196 72 207 183 123 231 232 202 96 25 241 22 142 157 123 112 209 31 86 254 11 9 16 166 214 157 184 198 106 65 231 38 194 25 2 43 250 219 185 77 252 223 211 202 91 118 46 156 127 125 1 169 3 50 101 59 91 70 20 175 186 51 112 113 50 207 199 40 30 33 213 45 189 116 138 66 31 171 14 129 69 212 3 146 132 0 10 
33 42 81 136 143 100 84 170 232 95 145 166 22 174 97 68 84 236 0 158 229 162 227 35 5 106 76 226 32 85 27 6 66 139 231 156 207 49 77 157 116 144 136 40 93 115 66 15 168 208 170 149 26 171 199 118 17 56 12 40 186 64 44 97 132 197 48 217 213 233 198 81 251 12 220 212 101 53 109 61 19 179 155 249 75 4 255 14 142 245 61 92 202 11 219 35 209 34 83 198 
10 84 102 207 102 28 180 50 150 187 138 214 124 219 251 81 223 115 50 244 98 234 6 7 183 127 207 85 16 232 120 236 214 57 214 30 158 8 56 203 89 207 64 227 202 145 241 38 62 193 8 46 119 95 144 176 233 100 177 255 41 96 201 209 162 98 190 70 138 24 146 38 20 55 55 106 231 29 165 255 208 182 43 198 179 156 2 223 200 130 40 39 3 210 107 255 212 149 196 80 
17 148 231 204 49 188 24 118 186 199 64 100 252 25 64 195 0 232 133 29 188 160 221 215 136 134 137 254 214 155 147 67 29 195 98 67 22 38 139 12 43 215 234 221 45 180 242 46 69 141 65 240 45 136 119 22 159 195 73 84 14 60 209 39 149 238 40 21 45 61 55 54 34 148 202 243 200 77 230 14 106 209 93 227 131 0 159 237 48 211 211 139 230 63 39 4 96 93 100 201 
220 201 197 251 135 72 9 45 54 173 199 107 86 253 2 123 38 209 253 98 36 252 80 43 196 110 60 227 104 88 60 232 141 145 220 100 66 57 206 20 223 156 59 78 243 88 87 66 126 195 56 128 97 135 232 186 18 143 185 203 148 39 216 249 167 94 37 119 60 175 66 46 43 225 234 190 40 44 133 191 244 157 249 76 208 188 194 194 55 107 69 197 204 17 97 132 146 248 72 62 
91 244 141 6 131 70 126 195 221 191 179 122 238 41 231 208 89 226 7 202 155 202 137 216 248 95 255 18 181 39 236 193 136 79 214 33 77 145 156 101 250 91 10 252 213 45 171 19 229 66 222 91 166 116 44 12 1 90 217 42 122 179 185 7 172 7 69 9 242 139 238 173 104 70 178 204 18 114 236 29 90 37 112 252 192 48 215 105 205 71 24 84 72 99 89 24 173 101 4 69 
219 252 28 162 13 200 210 114 11 192 83 247 162 209 229 53 81 199 50 248 69 113 227 24 136 0 113 252 117 177 56 93 111 172 206 76 210 43 146 119 42 222 136 168 163 143 100 142 193 2 228 192 81 31 99 255 160 82 172 187 234 51 12 217 21 98 171 180 159 181 27 98 214 150 50 56 71 166 21 144 120 167 150 201 218 152 192 144 249 33 175 94 246 50 166 66 55 232 91 225 
93 176 149 187 118 174 249 176 116 96 33 194 223 126 239 28 198 37 33 84 251 53 37 237 128 248 46 32 60 4 135 219 242 98 40 11 116 239 135 23 20 3 176 172 92 81 152 192 255 14 174 209 14 86 180 110 111 203 205 249 140 127 215 171 72 20 250 216 55 33 129 117 14 216 233 215 88 230 56 189 107 155 145 145 155 75 4 235 173 244 170 87 143 32 242 88 70 13 54 173 
39 12 146 210 74 39 245 202 60 6 120 28 244 20 239 28 8 221 190 107 33 186 239 193 173 177 129 234 211 151 2 15 172 119 96 55 176 56 252 13 110 121 0 228 129 192 243 248 191 212 138 247 179 103 193 192 78 248 43 106 217 248 134 136 46 44 147 171 40 82 37 41 88 7 119 29 249 232 194 175 38 248 15 150 75 66 74 219 218 191 153 223 63 121 236 159 21 241 212 55 
154 190 152 165 96 120 134 208 70 212 135 201 167 16 246 80 209 146 178 154 185 204 114 81 237 98 89 221 201 143 203 226 238 197 126 9 240 147 212 4 79 204 104 204 169 230 230 45 45 160 33 133 83 231 95 201 202 251 247 200 178 206 31 180 12 173 255 222 111 33 10 193 252 24 141 66 148 64 136 54 72 180 190 37 16 218 8 77 192 139 238 234 57 117 120 181 220 190 66 171 
69 234 207 15 53 255 31 178 207 231 132 114 8 21 177 1 89 108 20 232 182 92 102 203 196 78 128 238 71 66 112 248 217 182 204 247 226 202 70 165 196 163 129 234 86 13 35 161 148 100 44 159 149 180 134 241 189 31 220 102 51 127 176 78 149 77 168 128 235 194 41 162 218 59 39 164 27 226 60 142 43 139 247 124 67 220 118 230 138 177 55 37 138 190 43 51 224 119 12 179 
56 44 241 49 121 121 32 170 61 221 35 79 132 169 30 134 169 28 95 50 149 204 55 52 50 71 8 50 34 251 160 150 178 83 197 218 9 35 17 4 166 70 1 108 9 134 72 197 175 187 105 91 68 55 132 154 21 98 112 208 196 162 11 52 63 126 206 38 242 2 165 184 60 101 253 110 32 233 30 66 62 3 187 235 1 188 199 95 25 87 139 151 44 52 246 146 200 244 52 156 
157 222 130 208 233 129 64 220 51 155 71 4 60 58 126 106 51 33 168 140 40 109 128 14 195 121 8 186 54 254 30 197 112 127 80 83 147 228 241 62 169 101 108 19 147 169 217 94 65 47 206 40 41 238 120 189 241 56 234 179 111 228 180 39 212 172 184 74 36 212 57 29 234 13 53 120 41 152 245 81 149 174 226 59 3 32 154 45 31 59 67 133 93 238 32 76 50 47 97 188 
131 154 64 255 94 91 73 58 232 79 249 202 150 102 139 206 160 76 15 229 179 72 188 57 231 100 135 188 240 206 245 177 152 126 45 111 109 25 81 97 182 21 14 82 172 31 114 231 231 185 254 109 23 40 253 213 244 141 20 253 120 82 25 50 75 199 40 242 127 13 244 246 125 52 92 112 63 160 63 145 192 177 144 78 177 163 173 100 110 178 236 153 48 130 119 69 132 191 91 18 
252 0 219 0 36 242 10 172 183 178 153 209 19 122 237 15 235 128 116 235 60 27 58 24 130 40 183 245 43 172 236 86 76 187 174 135 147 152 65 142 125 29 40 177 200 93 60 56 44 137 252 116 70 16 36 0 213 10 129 71 40 215 3 70 215 3 20 148 178 109 40 159 247 169 149 56 200 162 166 82 219 132 234 6 116 217 210 219 144 242 123 69 99 136 201 107 5 163 181 45 
105 187 232 102 142 29 136 110 249 145 82 228 98 58 233 170 174 189 109 48 29 166 80 246 197 7 101 76 63 97 58 93 160 200 168 107 170 67 168 92 68 114 104 118 40 115 159 103 220 5 29 136 227 238 166 98 52 155 0 114 235 7 75 41 63 222 145 55 180 225 158 9 145 140 18 144 149 246 180 69 230 250 9 106 74 148 38 146 153 141 194 99 115 91 143 155 46 67 203 81 
18 192 17 126 201 40 118 187 17 141 209 76 180 225 90 94 186 94 119 141 221 37 210 169 61 38 175 186 85 63 125 65 46 168 170 193 210 142 188 126 4 254 158 133 46 5 55 236 155 22 65 91 230 171 89 204 179 47 82 142 156 28 207 144 111 97 17 220 150 6 13 98 214 18 194 247 61 173 201 157 85 130 46 5 158 103 126 82 59 64 33 32 236 32 234 197 60 178 237 214 
252 216 145 238 239 145 230 170 199 32 56 248 80 107 228 146 236 161 106 197 63 31 196 119 43 149 246 104 255 100 231 184 235 75 111 170 184 67 177 167 181 167 171 134 245 152 11 10 183 160 68 172 38 149 226 155 67 193 26 2 31 63 166 137 77 168 208 30 151 240 204 245 240 138 74 205 170 211 76 118 233 173 53 144 88 106 35 149 26 237 127 26 4 11 211 81 9 55 219 211 
245 95 222 156 95 17 62 87 216 226 79 221 105 16 101 248 61 102 49 108 154 96 77 56 22 144 21 25 7 64 185 80 59 89 144 165 233 132 175 172 232 142 187 71 31 17 251 108 61 81 177 40 170 100 171 228 189 150 21 232 47 11 145 29 207 166 138 23 120 42 196 82 64 159 56 188 243 248 32 116 192 242 78 210 49 63 193 167 97 228 122 198 105 224 140 195 27 14 115 250 
243 76 166 211 74 221 112 69 205 12 251 153 46 18 174 113 25 58 184 8 106 67 237 187 157 6 210 201 133 89 243 87 65 50 125 183 109 16 8 233 149 150 181 98 239 121 121 13 73 157 184 144 64 123 22 208 179 198 138 183 119 78 180 53 76 36 112 132 16 255 171 177 51 222 117 88 107 239 88 175 169 176 232 197 75 84 156 12 147 104 220 22 88 182 91 156 251 106 167 196 
157 115 255 163 143 44 100 1 10 60 242 93 33 187 113 49 243 150 40 120 37 52 241 108 144 89 147 148 54 75 75 254 123 52 172 202 146 200 170 232 53 39 241 33 153 5 123 92 161 8 97 26 82 113 241 68 135 255 2 38 229 16 132 187 18 10 91 43 34 249 110 146 82 122 250 3 249 215 45 205 187 115 240 252 0 105 4 35 164 112 80 89 241 2 121 130 202 189 180 208 
40 9 216 137 203 251 184 10 41 121 175 12 171 159 124 38 24 98 80 147 81 115 38 54 64 102 83 219 11 20 94 192 141 62 17 84 6 115 208 62 17 51 42 161 215 84 174 158 131 165 0 27 246 210 44 195 187 135 57 78 61 216 2 3 55 225 65 123 109 169 237 167 154 77 198 21 169 90 46 110 39 122 58 68 249 83 9 10 74 172 84 100 200 209 71 162 16 57 143 134 
102 103 181 78 170 14 170 238 135 120 163 158 238 40 38 148 195 191 101 19 214 28 204 164 20 199 214 164 255 144 36 254 91 115 208 58 42 191 255 183 219 120 181 52 191 249 238 149 188 221 234 228 69 32 200 151 137 130 86 17 235 44 40 107 179 150 231 115 3 168 236 245 12 32 13 58 129 51 183 207 76 119 62 135 129 0 112 195 144 201 112 241 190 86 194 83 214 152 162 2 
27 17 154 50 130 57 83 183 30 31 172 201 220 83 9 4 112 4 237 178 143 102 204 77 95 86 26 64 44 65 168 238 92 66 48 245 165 138 47 180 125 5 242 11 210 59 244 97 252 116 103 236 240 31 17 44 182 116 89 185 29 89 162 63 173 130 215 199 221 221 71 56 134 45 180 29 152 244 166 168 12 151 5 247 25 189 231 151 171 248 167 71 17 167 55 254 245 27 183 47 
146 248 70 75 33 222 24 136 148 73 200 225 135 182 240 93 116 8 248 149 38 41 43 112 112 244 16 50 30 83 247 181 44 164 210 245 54 98 70 211 48 1 2 18 87 25 80 166 103 199 233 46 15 81 14 191 162 8 212 227 15 115 192 225 19 169 147 63 173 255 103 134 211 227 251 69 99 8 76 88 92 196 101 106 78 182 119 185 15 171 44 25 176 194 57 60 175 207 51 48 
110 254 163 41 228 185 92 129 147 203 12 253 186 197 18 82 203 160 143 232 31 165 192 221 233 138 139 77 105 222 87 209 98 167 33 69 205 73 204 207 207 169 185 28 233 147 152 237 111 89 126 211 59 189 55 54 162 17 221 156 167 157 169 40 111 65 10 97 245 92 244 54 255 236 123 62 81 246 160 68 32 40 107 2 201 189 58 45 195 161 88 178 210 213 209 64 126 22 133 6 
196 185 124 190 11 218 121 234 90 181 210 93 199 84 126 254 51 107 112 201 52 128 35 22 83 78 119 30 120 108 187 187 162 42 11 111 219 188 220 168 108 154 213 66 77 38 225 78 223 143 130 18 221 246 104 80 144 208 66 204 67 140 212 8 247 117 73 82 88 217 203 0 239 107 82 251 152 230 185 122 55 243 23 16 167 77 76 233 243 35 218 81 201 190 247 117 43 99 224 110 
104 123 111 123 75 241 240 142 146 220 49 11 161 94 216 204 120 203 249 104 227 14 232 181 240 73 76 139 166 188 117 203 244 232 240 160 232 244 88 5 34 79 110 136 135 151 108 77 58 186 151 85 200 91 20 0 162 119 252 209 209 72 179 114 229 105 117 248 46 60 49 103 47 137 155 121 80 103 125 155 211 96 77 57 9 208 5 59 198 142 47 208 18 206 63 106 33 70 38 10 
134 144 36 189 163 208 222 102 100 150 176 191 45 6 68 155 16 54 100 110 68 215 12 14 210 24 196 187 146 199 44 94 86 185 217 14 101 109 95 216 43 236 175 192 46 243 164 3 68 84 216 159 4 154 188 21 122 236 232 110 31 52 175 124 7 128 247 98 93 168 71 87 13 49 34 166 192 113 148 249 13 244 10 216 237 31 103 109 112 19 83 138 175 212 214 237 2 171 39 194 
115 200 190 105 114 44 176 122 202 198 60 6 211 220 161 32 233 173 51 156 30 85 174 23 44 240 202 56 174 2 16 52 143 23 235 152 194 166 2 67 51 59 197 177 254 213 70 128 224 141 75 44 234 121 161 30 125 208 179 229 114 79 91 195 153 219 247 107 101 103 192 9 229 24 87 131 246 167 161 254 184 8 213 165 62 73 211 165 138 188 184 124 184 88 175 116 121 93 10 106 
195 55 145 212 199 165 25 3 36 26 89 165 90 100 250 141 129 139 237 183 59 252 1 134 231 230 181 81 23 229 74 30 68 222 29 173 193 42 52 185 238 246 23 122 174 233 225 110 27 8 150 89 120 215 183 139 102 193 20 97 91 186 226 14 81 35 13 155 187 238 208 45 189 2 130 135 156 225 179 207 116 136 119 149 41 151 2 17 159 177 117 172 46 38 248 195 80 207 9 167 
157 58 19 232 250 7 67 211 13 146 151 57 244 211 56 114 54 130 9 162 249 126 128 59 118 111 181 195 171 170 184 216 79 86 40 113 11 205 1 102 231 69 182 51 3 176 128 249 135 225 245 197 220 239 220 21 29 222 64 152 200 124 195 54 186 138 53 80 90 28 101 73 20 67 55 69 9 232 247 48 4 251 237 3 176 206 50 66 9 187 194 201 17 13 209 201 196 30 99 14 
77 188 23 131 122 209 67 247 110 67 70 33 150 26 26 226 222 225 41 203 36 78 98 223 236 37 139 154 86 89 217 50 78 116 190 28 3 58 2 210 154 137 21 212 35 132 164 236 204 241 106 183 84 222 73 97 195 139 153 176 89 132 192 68 196 14 2 29 150 196 155 93 245 130 11 79 148 130 178 169 227 197 156 14 131 181 158 215 253 8 162 19 179 231 63 204 23 80 141 141 
26 185 55 32 232 246 209 156 210 92 108 160 139 39 104 217 152 25 138 202 2 100 78 204 78 202 127 83 174 3 4 116 121 95 253 164 217 172 15 195 196 90 251 89 45 221 118 31 123 83 53 193 58 103 71 226 16 117 167 96 243 239 18 218 154 255 22 112 49 109 108 202 81 196 135 92 47 176 109 232 20 171 198 68 13 216 50 93 227 47 224 124 77 219 93 200 101 224 169 13 
89 1 144 187 99 225 55 50 251 104 246 60 75 104 101 219 227 129 186 70 174 66 82 46 36 144 141 69 194 76 223 1 183 48 36 157 225 250 52 98 247 205 184 36 8 212 60 15 36 40 133 164 89 244 36 254 225 215 75 90 153 137 224 214 181 194 208 121 178 87 166 116 141 166 92 167 51 53 112 103 56 150 59 127 203 142 127 116 234 118 63 14 210 224 211 19 186 126 59 86 
192 64 180 240 36 189 137 206 180 212 44 108 135 147 133 223 238 87 138 25 168 53 16 105 85 153 224 65 45 45 14 60 242 253 134 95 35 216 232 160 115 249 150 164 122 231 11 205 169 153 110 116 131 222 102 115 10 252 49 231 120 151 240 52 48 213 69 73 244 192 32 37 88 236 214 153 119 89 116 80 228 154 82 14 228 55 235 53 218 81 235 141 2 132 138 68 98 18 25 52 
254 61 218 101 76 244 21 211 231 178 104 113 135 164 95 109 49 10 69 182 171 223 57 188 51 188 132 119 112 250 41 170 169 23 190 105 53 90 123 217 51 186 145 55 123 253 188 27 212 29 28 254 103 239 65 250 115 6 133 210 67 214 158 50 93 21 115 56 253 103 47 50 193 57 148 170 166 237 147 160 51 56 25 22 244 201 43 210 42 44 53 95 193 237 159 85 130 0 162 218 
138 96 90 105 251 247 28 210 241 190 9 130 184 37 227 5 60 181 32 201 192 244 61 37 211 137 85 153 128 160 242 88 198 144 35 3 72 187 207 184 68 182 72 75 201 171 35 211 37 251 72 105 157 39 69 44 98 240 232 137 192 189 12 185 151 62 179 138 15 79 85 99 136 31 120 130 208 145 129 137 153 226 202 57 42 141 244 125 84 107 127 170 168 31 151 5 231 177 49 134 
186 121 87 219 163 63 192 176 52 160 164 46 127 179 206 193 205 237 243 31 147 66 66 134 161 141 60 68 157 50 198 125 176 2 125 41 127 95 73 92 93 160 53 202 190 183 126 138 239 16 233 26 5 189 90 164 20 209 163 127 161 9 154 249 89 178 110 84 3 198 59 14 179 89 219 102 64 51 0 27 249 191 127 119 148 36 239 140 103 177 115 190 219 126 212 129 29 80 211 100 
22 190 189 79 158 146 63 8 236 114 124 252 81 192 93 61 39 190 40 199 4 246 85 7 51 217 157 158 100 166 83 98 162 141 247 165 134 21 9 187 170 187 27 182 97 219 42 116 165 212 46 220 81 104 240 100 145 97 28 214 150 122 151 85 142 124 18 155 211 168 224 132 98 85 4 208 144 218 143 36 248 174 41 83 184 206 237 220 221 95 122 180 27 149 70 69 194 211 54 182 
237 20 108 109 252 137 97 210 69 131 51 86 7 148 64 181 159 241 243 119 255 27 222 189 91 191 9 58 37 218 138 128 60 32 86 125 97 159 87 69 234 160 191 18 186 206 155 136 112 154 171 62 223 221 113 123 191 191 136 61 161 217 55 128 41 150 70 188 119 223 16 176 230 247 218 94 249 163 99 87 146 143 188 56 101 237 90 117 173 95 106 85 29 23 100 62 26 60 227 51 
39 144 180 155 161 81 45 68 172 93 192 167 109 153 208 110 122 146 194 51 142 101 88 139 130 221 58 67 120 220 214 233 90 252 106 142 131 117 95 203 187 66 217 2 105 127 140 230 4 22 209 62 203 154 249 230 182 115 225 22 172 60 198 230 246 105 91 18 244 45 25 251 14 155 215 239 238 11 154 170 236 191 174 29 202 198 246 110 162 33 128 63 28 37 92 51 228 32 175 174 
92 63 3 221 142 175 225 247 100 3 162 194 27 214 130 88 245 177 246 43 46 47 64 71 50 94 64 215 13 105 141 235 35 116 196 120 33 200 32 160 51 48 75 52 120 162 116 120 179 34 162 38 67 228 72 181 85 177 25 218 88 139 29 80 177 148 5 213 176 44 188 117 195 90 62 10 234 109 173 4 107 227 162 102 199 137 193 17 236 228 144 69 172 208 137 101 110 103 109 250 
36 36 220 251 125 72 35 76 91 125 85 132 135 186 157 243 164 102 210 228 97 192 76 31 243 126 246 178 195 180 165 241 99 248 168 188 199 196 161 0 178 28 147 128 110 112 59 214 192 195 164 180 27 13 246 112 20 222 142 192 22 69 84 194 87 240 73 63 10 148 96 48 215 144 143 129 136 205 37 22 5 232 94 12 130 147 53 65 247 56 121 22 208 224 35 115 230 84 231 12 
175 129 9 227 177 33 114 14 61 152 3 187 89 28 41 113 254 25 178 153 132 212 223 60 90 78 186 14 250 107 169 172 28 83 68 34 42 25 100 176 245 155 124 206 166 169 45 109 247 105 20 128 163 249 231 187 26 87 192 154 122 126 184 166 187 210 184 244 41 190 140 238 24 156 57 85 211 213 145 135 213 73 4 254 60 241 185 26 122 194 222 32 78 213 60 130 243 198 14 97 
151 90 19 80 14 100 226 91 200 233 126 72 0 130 42 28 55 2 126 225 225 89 187 167 94 184 92 201 43 246 237 113 90 51 32 94 63 187 30 229 109 44 27 54 225 220 45 225 124 117 94 153 183 226 0 55 146 111 64 2 205 43 254 45 91 145 220 161 20 104 149 253 170 232 145 219 222 30 182 86 243 146 128 201 99 38 84 216 210 65 17 181 64 45 233 156 130 190 111 160 
243 53 240 170 103 99 7 191 96 18 108 129 133 160 13 249 79 237 96 147 6 120 247 106 236 196 85 198 184 1 0 227 69 232 215 245 140 231 166 104 208 126 248 108 24 233 44 177 226 255 203 111 22 90 25 170 57 184 234 180 227 161 183 243 115 74 241 228 1 186 149 96 148 43 1 31 149 179 6 122 132 35 62 117 234 48 160 252 143 208 81 109 236 231 189 87 227 35 231 130 
174 36 253 47 22 225 48 160 229 71 195 219 157 35 97 172 106 65 179 233 86 213 50 249 188 27 58 151 255 59 96 212 123 111 6 91 188 103 45 249 238 237 138 93 149 197 219 28 127 215 123 248 246 144 52 97 58 133 85 60 46 89 5 228 81 225 215 110 240 135 159 50 154 236 131 134 213 210 85 205 15 56 32 177 215 198 0 172 77 108 55 205 215 71 126 185 22 196 153 240 
25 7 46 81 208 142 215 225 195 17 118 200 3 173 201 156 97 66 62 226 223 26 8 210 100 203 114 91 180 94 115 103 158 176 131 96 120 25 174 243 200 76 231 20 68 126 158 66 253 203 149 12 215 213 239 212 60 174 138 211 17 248 142 93 233 74 70 102 121 214 47 70 77 73 79 185 185 243 200 42 17 40 173 49 28 230 20 90 199 183 109 40 23 217 18 89 97 157 31 108 
189 13 131 97 184 209 87 192 73 84 111 220 7 34 47 89 152 149 160 236 109 176 195 98 172 75 38 228 110 112 180 121 43 6 209 204 114 172 167 48 222 232 186 225 69 129 195 140 50 41 187 18 150 95 54 138 186 148 242 133 120 141 176 149 171 8 66 16 228 162 230 17 95 248 210 192 53 13 16 211 210 236 140 85 170 142 108 166 40 253 159 196 231 186 185 200 37 92 254 180 
117 123 188 107 179 204 223 1 61 141 191 53 96 36 60 60 17 3 13 193 222 206 85 41 36 192 119 27 129 75 44 64 140 254 211 71 196 172 8 45 199 203 119 187 197 26 242 80 51 135 194 224 196 79 59 61 149 103 148 149 167 27 245 60 147 245 208 172 121 224 117 203 58 141 225 108 231 22 215 23 121 225 51 13 194 200 122 135 163 118 181 63 128 20 128 49 241 38 94 163 
186 175 79 99 254 156 165 80 175 95 19 27 73 219 7 79 192 128 57 143 182 183 132 31 242 128 246 167 14 89 35 51 111 99 190 125 123 192 106 111 5 63 205 228 12 59 230 175 166 192 161 222 55 240 169 64 230 165 126 36 82 88 199 100 128 66 233 162 25 192 216 210 210 252 46 248 43 202 122 51 92 208 218 251 140 234 204 167 69 205 65 50 37 234 243 62 214 149 249 89 
64 102 152 128 252 223 93 225 12 80 104 229 202 248 11 110 31 109 148 94 245 62 102 88 239 214 79 202 87 163 21 43 88 120 82 129 109 48 130 39 25 149 91 205 217 128 93 192 87 65 169 108 224 64 22 31 24 229 130 15 236 182 102 159 201 191 173 222 11 55 199 80 185 96 249 242 111 175 247 120 155 45 180 217 236 29 121 13 8 223 53 21 126 20 20 61 251 3 82 158 
192 60 82 230 83 122 234 92 117 206 1 30 85 250 93 173 3 27 182 172 39 140 15 229 243 6 70 141 86 12 233 201 115 134 75 113 81 172 215 19 212 37 165 59 236 112 75 241 12 132 246 132 222 179 185 134 53 212 36 24 67 161 25 104 12 94 219 119 26 188 104 32 114 252 9 86 200 87 39 173 239 158 96 27 147 30 218 0 42 198 215 101 40 140 138 129 114 12 42 130 
22 114 68 138 57 155 85 247 81 119 152 231 148 178 29 251 175 147 27 92 188 36 135 252 110 147 229 31 143 216 95 25 173 152 20 89 16 73 178 166 239 152 71 169 227 7 84 172 155 219 36 161 210 53 91 102 126 127 210 71 74 9 162 197 71 244 127 149 222 80 72 236 10 129 219 250 196 231 46 180 190 190 156 215 83 66 124 42 190 23 248 3 139 233 29 12 76 80 46 71 
141 246 62 80 10 251 253 227 31 152 211 157 127 3 43 7 41 147 18 208 152 37 0 90 58 190 245 121 36 114 200 119 4 132 188 91 87 206 85 106 220 99 106 239 72 116 122 56 59 112 68 225 115 111 145 85 64 209 85 145 55 34 246 43 43 65 236 147 89 194 138 154 227 144 27 48 128 215 49 114 113 33 58 228 183 191 84 250 131 106 99 222 238 42 96 109 234 119 244 130 
120 158 69 120 28 103 16 234 142 245 248 189 179 237 29 97 203 219 241 83 236 209 71 231 175 81 173 68 41 108 252 176 29 44 45 14 111 48 110 164 220 150 117 34 233 30 21 224 25 139 15 104 99 77 42 52 227 94 134 185 208 106 45 164 174 50 235 99 197 50 96 231 209 129 83 168 251 250 73 234 8 153 86 63 209 39 52 78 243 26 146 210 199 183 174 230 149 121 38 127 
4 182 12 58 213 128 56 88 209 202 226 6 0 203 112 226 28 168 140 188 69 77 122 153 246 155 168 254 56 201 135 107 22 4 154 37 80 89 205 56 84 213 7 189 105 235 2 89 46 21 91 6 67 190 229 22 70 96 67 117 1 234 182 46 225 100 51 48 170 213 185 83 106 101 225 150 172 191 183 170 237 185 200 181 84 55 124 80 157 76 166 209 87 163 90 208 79 30 255 228 
76 188 164 174 252 192 152 25 47 16 52 223 67 219 252 80 223 126 231 79 229 169 250 157 161 189 27 90 71 121 37 200 156 214 56 83 243 47 83 206 91 165 36 0 23 194 30 95 78 93 205 27 4 189 102 94 73 1 163 211 176 190 205 101 3 235 26 73 53 250 58 62 152 72 45 19 80 183 87 106 8 153 214 189 228 209 19 158 182 52 151 67 116 54 33 65 234 194 245 152 
172 105 118 240 79 191 247 34 216 2 207 250 117 253 171 60 107 44 41 228 80 33 162 178 122 38 70 230 183 36 111 73 62 196 47 108 230 211 43 52 150 235 173 150 253 80 244 160 131 24 207 185 127 143 106 41 170 217 103 220 212 217 48 98 213 82 140 59 199 76 113 82 114 186 26 199 8 89 88 241 19 219 45 164 171 69 151 175 236 150 170 169 167 169 225 238 88 92 182 228 
88 242 112 131 84 182 61 20 254 225 128 56 2 190 108 45 60 12 210 77 40 164 55 215 154 92 42 242 175 42 213 239 3 141 209 207 36 40 63 5 71 176 20 125 58 9 180 220 154 172 195 10 70 76 55 238 19 185 178 120 194 4 16 229 47 228 59 62 202 88 71 34 75 142 187 198 162 4 44 58 45 237 17 238 46 214 210 116 124 137 34 135 121 50 143 77 67 192 87 217 
47 142 126 244 115 67 29 29 34 247 253 206 94 151 100 1 201 138 47 243 60 148 33 40 188 251 123 175 169 233 205 167 57 18 11 2 37 150 227 137 162 41 78 32 147 113 102 76 253 175 119 242 187 162 88 98 115 169 252 147 200 39 68 176 209 43 23 212 202 81 181 19 10 227 72 185 53 68 189 214 179 143 209 250 97 123 111 61 134 130 57 130 8 66 101 253 224 35 202 243 
203 58 58 193 66 109 19 32 173 216 17 167 212 112 102 146 150 230 13 193 221 207 91 4 209 1 215 149 76 64 75 230 142 26 27 157 51 15 214 221 98 245 11 200 70 155 94 66 194 173 218 247 96 215 137 159 139 45 66 129 255 203 195 53 125 184 0 175 195 17 186 121 187 99 82 64 243 88 224 146 77 150 128 230 248 228 236 221 158 142 80 199 223 11 89 105 255 222 143 254 
219 186 230 123 34 233 143 23 193 239 20 11 159 106 164 150 139 60 172 69 115 236 167 113 214 74 54 9 123 82 115 146 100 83 130 107 254 81 106 86 154 167 35 52 32 240 241 16 2 40 240 95 112 15 239 134 203 206 129 157 91 221 82 115 68 36 184 210 182 97 138 4 101 201 53 149 57 242 12 91 70 240 224 180 254 191 209 15 165 225 99 174 6 71 213 170 101 117 174 55 
180 226 152 41 10 157 113 183 80 54 160 127 62 220 165 203 134 195 244 19 78 201 4 195 228 88 163 61 173 142 140 34 95 155 59 206 112 107 0 33 207 134 83 133 209 52 103 44 110 228 2 154 173 206 139 100 93 216 101 55 6 182 123 27 31 86 28 249 129 123 10 91 28 168 205 116 233 63 77 96 31 234 160 173 170 58 33 25 217 142 194 157 87 55 163 171 92 217 227 181 
36 20 182 238 161 100 183 84 109 70 128 238 2 157 120 82 45 83 237 107 192 67 99 121 136 87 43 89 126 237 55 7 65 128 44 97 196 132 185 46 68 145 40 94 126 196 50 147 30 99 24 225 122 191 239 210 128 95 59 174 237 90 192 249 193 5 149 60 239 206 122 9 88 104 107 57 250 41 118 120 101 176 201 4 111 202 15 177 41 151 253 49 18 232 39 146 138 236 25 8 
137 12 163 237 144 19 116 6 224 146 234 8 235 131 41 90 8 44 107 29 106 70 151 106 83 95 20 218 133 125 223 76 250 4 219 226 212 217 105 77 151 200 57 75 150 35 96 109 171 172 170 30 43 181 49 225 25 134 46 218 154 255 16 144 169 127 203 241 12 4 115 151 135 147 9 73 79 218 149 197 193 20 116 188 84 45 244 31 205 38 30 153 178 188 211 93 0 68 27 33 
32 218 185 106 24 186 3 11 255 238 240 232 179 42 115 0 206 244 7 171 213 7 139 31 179 250 81 57 102 29 114 123 249 164 100 81 178 7 206 152 140 168 154 96 231 183 76 241 127 82 147 13 155 241 30 117 135 2 177 175 67 208 120 5 125 169 155 209 189 64 18 248 224 80 187 181 199 130 170 152 80 145 192 206 133 172 127 162 20 28 28 68 0 38 214 201 149 51 135 116 
161 46 121 52 225 46 122 109 186 85 51 251 41 248 181 117 253 255 85 174 68 143 186 130 3 231 52 207 42 136 79 193 198 153 169 83 121 137 0 18 39 246 143 36 243 206 155 138 106 180 73 162 253 165 178 240 181 219 57 29 34 241 29 64 149 73 74 93 143 171 117 43 120 46 103 27 148 92 153 149 52 145 2 133 41 164 45 22 126 201 142 189 103 182 22 122 116 5 5 91 
10 218 0 65 20 197 99 230 246 234 216 31 194 95 41 95 175 213 82 125 199 123 219 183 223 31 100 246 204 150 130 84 212 95 201 219 99 131 42 143 255 191 128 175 126 229 101 57 119 128 74 172 246 183 199 17 116 116 47 60 6 197 104 80 212 130 249 129 205 48 101 30 153 37 184 206 207 237 95 26 105 237 60 43 117 70 250 213 13 252 158 213 136 88 95 87 242 138 184 188 
186 147 187 153 171 98 168 3 29 61 190 10 109 99 81 131 170 240 29 11 145 0 218 72 188 23 17 114 22 193 45 18 146 117 213 10 29 191 121 214 209 159 43 17 107 44 177 59 255 124 216 185 234 200 11 29 9 204 35 168 40 109 129 13 189 158 90 120 215 132 83 207 81 216 78 56 75 142 131 219 218 180 210 233 255 156 87 221 214 61 64 2 16 215 219 53 163 214 243 236 
192 249 93 119 6 179 206 134 245 210 240 236 165 94 180 162 184 196 233 15 141 51 14 134 182 71 100 17 173 229 72 109 194 102 192 85 88 247 84 4 81 63 31 245 199 67 37 237 253 135 231 59 149 118 53 62 3 4 68 41 65 146 0 3 196 18 163 242 176 107 135 184 72 31 56 126 168 43 206 209 182 47 122 234 86 206 94 50 221 88 162 5 201 166 196 182 175 70 47 212 
116 217 16 172 192 184 101 15 176 222 86 86 203 2 201 162 56 3 49 105 46 137 166 46 171 234 59 143 105 74 140 133 14 7 150 232 162 84 204 49 71 35 103 132 36 73 253 238 163 220 85 235 220 224 122 43 81 35 14 149 219 102 225 141 228 189 194 114 215 57 149 107 213 195 166 100 170 75 61 83 255 35 115 192 208 165 67 132 33 28 228 209 237 226 86 114 96 197 60 84 
70 175 233 70 194 135 189 253 67 82 178 91 180 158 50 241 243 32 44 194 133 156 102 73 136 5 21 190 232 230 171 150 214 0 240 73 118 52 84 87 216 164 131 141 42 22 59 132 44 153 90 108 228 106 60 7 146 24 67 248 230 231 183 62 113 114 209 252 90 149 18 123 82 138 217 113 201 82 53 132 98 87 248 10 165 79 13 19 245 99 11 169 193 145 9 86 254 79 181 231 
212 113 160 112 151 76 220 144 250 28 201 246 127 163 44 36 50 19 129 115 151 46 147 88 225 172 73 229 100 221 195 147 77 143 165 62 145 50 179 113 35 58 159 228 106 197 30 67 242 126 65 49 98 193 3 141 174 0 31 244 141 101 36 135 46 184 202 238 38 132 135 157 174 117 94 85 11 5 248 238 77 87 245 85 60 99 132 209 144 84 49 138 96 46 255 75 221 180 183 135 
64 137 127 154 1 149 174 82 74 170 223 174 171 104 69 229 15 94 62 170 239 113 42 175 197 130 125 104 196 75 19 17 198 138 196 242 134 98 57 226 15 254 253 10 116 119 215 235 194 248 88 163 51 32 176 107 164 167 198 101 73 69 135 149 160 207 125 44 163 164 164 13 66 71 122 138 16 77 86 110 61 122 250 65 196 39 107 199 229 230 1 202 214 105 186 25 182 160 211 209 
194 34 154 219 203 206 126 182 232 178 104 119 104 44 78 14 10 78 5 202 113 135 86 32 210 128 85 168 240 69 238 104 74 165 193 85 146 219 48 23 98 110 181 13 43 85 121 145 110 95 35 125 46 210 238 237 165 82 255 71 54 5 245 121 163 245 193 130 128 182 184 52 231 72 230 56 110 62 166 82 86 32 112 230 5 15 241 188 182 167 97 0 112 42 17 141 52 218 67 107 
123 166 63 149 224 9 163 0 25 48 251 218 43 91 145 15 222 133 135 18 111 71 34 218 134 250 105 43 103 28 239 22 108 244 237 195 179 121 147 110 20 113 160 176 86 214 49 0 162 125 214 121 55 250 235 222 96 190 38 219 163 130 108 141 60 233 233 69 202 96 95 137 71 73 190 92 61 90 246 192 55 63 9 120 118 135 100 18 230 189 111 37 81 213 99 216 209 203 92 163 
139 134 175 90 154 2 125 103 74 174 136 86 135 19 70 152 149 183 52 128 1 65 109 146 215 221 123 253 21 226 109 102 96 179 41 231 246 227 4 88 228 156 144 205 121 65 181 95 250 82 4 48 151 144 71 169 158 98 93 6 239 120 69 21 176 174 120 58 65 51 124 183 114 234 182 42 244 16 128 87 14 32 123 40 145 243 38 242 14 44 176 250 70 211 11 56 226 64 66 91 
101 59 12 13 94 97 161 119 226 202 204 8 57 232 66 114 216 178 50 246 143 2 29 226 4 60 232 88 96 49 48 80 72 67 221 224 15 201 250 188 42 181 196 249 228 116 0 22 83 21 146 60 138 174 76 197 16 251 4 252 145 73 233 35 212 146 23 187 237 234 104 255 180 25 141 178 117 138 94 26 233 100 111 77 101 246 228 171 82 88 134 172 221 79 22 220 239 114 225 35 
96 139 148 74 104 64 82 187 86 243 4 136 132 230 240 175 138 163 142 157 178 155 150 240 172 13 94 129 131 41 99 162 208 118 37 164 46 113 57 157 237 119 153 103 11 228 62 236 95 125 241 161 24 11 94 81 102 73 106 28 119 0 198 191 165 113 196 22 238 243 106 223 164 221 198 192 101 166 128 140 78 75 182 194 108 241 3 86 115 204 225 180 179 63 50 3 71 69 25 166 
144 15 14 9 226 239 50 154 124 116 223 21 190 215 132 5 150 149 176 136 60 94 108 82 31 46 206 244 31 186 203 94 252 13 77 163 14 115 133 253 55 150 131 17 23 231 4 116 126 63 139 109 39 198 179 253 163 21 195 28 147 151 131 70 26 53 78 54 146 50 105 242 126 83 147 7 192 68 221 22 13 55 188 143 157 206 93 189 39 59 56 3 12 166 232 101 211 206 58 73 
213 244 132 127 57 245 56 128 35 182 184 243 41 196 108 118 7 60 19 154 147 233 86 47 243 173 163 195 13 34 56 101 63 128 126 175 80 194 153 3 167 4 61 20 187 48 195 168 203 217 124 157 207 103 69 42 174 117 91 104 177 119 113 17 56 160 0 135 172 3 223 24 180 248 19 128 172 193 232 175 83 109 65 205 195 253 44 124 167 198 185 93 168 22 13 213 40 26 178 17 
51 255 49 71 178 88 227 63 226 192 4 19 5 192 9 51 88 243 51 171 68 103 101 169 216 71 51 57 119 183 59 84 206 0 184 25 9 237 84 90 71 117 62 90 75 153 125 213 116 144 132 65 239 34 6 84 43 82 11 198 141 63 68 88 102 76 155 21 34 127 15 216 194 39 191 14 140 194 68 189 0 29 68 198 15 189 68 103 136 126 190 3 211 122 116 38 225 44 3 196 
99 214 187 193 58 31 174 182 47 1 7 243 229 226 158 192 11 1 201 233 214 20 116 121 175 48 116 197 41 232 24 172 53 185 1 30 153 166 52 219 158 31 110 125 9 39 184 185 77 182 58 226 255 92 84 174 138 40 235 61 36 200 1 87 1 241 137 246 198 2 121 4 64 228 32 101 86 52 186 56 60 164 66 90 234 158 135 44 205 43 130 151 188 20 231 77 45 71 250 81 
169 123 164 185 125 23 198 179 179 80 205 198 64 146 135 90 127 34 53 123 222 1 225 218 216 19 241 20 35 128 253 55 42 91 222 131 189 130 7 109 7 197 25 234 193 74 177 233 166 47 132 33 39 114 175 14 95 14 72 54 73 103 57 177 49 232 78 232 104 235 140 157 60 217 197 44 39 146 105 16 71 15 159 168 14 70 148 59 59 77 19 59 9 195 87 198 166 108 29 114 
230 27 253 74 57 213 249 20 219 51 87 214 74 8 172 152 253 68 58 106 83 24 123 169 202 91 254 127 113 45 114 169 160 218 1 125 230 1 223 43 67 245 34 67 151 99 212 119 91 53 70 163 143 183 168 10 243 248 215 226 122 116 118 20 252 239 64 61 43 164 156 248 200 159 114 95 23 104 62 207 144 225 99 236 215 113 193 229 238 98 137 250 170 136 80 59 99 36 99 146 
240 7 91 3 210 251 241 51 176 94 19 39 4 16 55 79 19 144 239 195 34 97 189 204 231 179 41 166 62 63 18 132 29 115 66 213 202 207 69 198 75 143 122 8 31 138 106 211 43 90 89 43 247 189 27 98 26 59 41 222 243 9 244 28 154 46 121 245 22 228 22 32 209 65 156 249 73 22 165 128 7 24 40 165 213 61 74 195 44 105 119 106 236 74 178 97 79 128 41 235 
32 2 13 74 40 189 160 130 234 126 144 95 144 17 131 185 36 171 243 247 3 133 60 210 143 202 243 92 37 179 122 64 79 240 209 75 58 75 175 43 106 136 210 119 172 143 147 240 76 205 189 7 137 215 159 159 70 80 96 19 2 14 147 123 10 120 11 43 237 50 241 125 49 253 19 209 68 216 127 209 181 107 81 250 164 166 201 88 120 166 161 144 208 216 157 36 187 96 99 243 
43 188 141 255 167 164 253 115 65 53 112 229 200 79 86 216 62 60 226 133 140 146 93 219 117 90 191 196 201 113 128 170 219 47 172 58 52 71 54 103 137 238 142 178 235 64 117 169 62 223 17 174 236 221 60 250 219 220 34 226 156 115 11 88 229 212 117 180 65 172 102 181 6 75 0 194 135 5 86 118 140 216 126 92 255 79 232 247 232 165 237 6 156 46 171 5 48 243 17 247 
